<?xml version="1.0" standalone="no"?>
<!DOCTYPE svg PUBLIC "-//W3C//DTD SVG 1.1//EN" "http://www.w3.org/Graphics/SVG/1.1/DTD/svg11.dtd" >
<svg xmlns="http://www.w3.org/2000/svg">
<metadata></metadata>
<defs>
<font id="pf_din_text_cond_probold" horiz-adv-x="1003" >
<font-face units-per-em="2048" ascent="1536" descent="-512" />
<missing-glyph horiz-adv-x="507" />
<glyph unicode="&#xfb01;" horiz-adv-x="1089" d="M37 791v221h102v129q0 98 33 167.5t89 113.5t131 64.5t159 20.5q96 0 200.5 -26.5t180.5 -106.5l-154 -203q-41 41 -96 59.5t-115 18.5q-47 0 -75.5 -14t-44 -34.5t-19.5 -43t-4 -39.5v-106h549v-1012h-287v791h-262v-791h-285v791h-102z" />
<glyph unicode="&#xfb02;" horiz-adv-x="1128" d="M37 791v221h102v123q0 98 30 167.5t83 113.5t127 64.5t160 20.5q20 0 62 -1t99.5 -8t129 -21.5t151.5 -40.5v-1084q0 -59 22.5 -77.5t57.5 -18.5h29v-254h-78q-72 0 -130.5 14.5t-100.5 50t-64.5 94t-22.5 146.5v924q-43 12 -70.5 15t-56.5 3q-47 0 -75.5 -14.5 t-44 -34.5t-19.5 -44t-4 -40v-98h182v-221h-182v-791h-285v791h-102z" />
<glyph horiz-adv-x="0" />
<glyph horiz-adv-x="682" />
<glyph unicode=" "  horiz-adv-x="507" />
<glyph unicode="&#x09;" horiz-adv-x="507" />
<glyph unicode="&#xa0;" horiz-adv-x="507" />
<glyph unicode="!" horiz-adv-x="583" d="M150 1425h284l-24 -1022h-234zM152 0v272h282v-272h-282z" />
<glyph unicode="&#x22;" horiz-adv-x="737" d="M96 969v456h219v-456h-219zM412 969v456h223v-456h-223z" />
<glyph unicode="#" horiz-adv-x="1046" d="M27 420v196h174q8 53 16 101.5t19 101.5h-144v199h174q16 102 32.5 202.5t33.5 202.5h221l-66 -405h158l68 405h221l-68 -405h150v-199h-180l-33 -203h149v-196h-182q-16 -106 -32.5 -211t-32.5 -209h-224l68 420h-158l-67 -420h-226l70 420h-141zM422 616h160 q8 53 16 101.5t18 101.5h-159z" />
<glyph unicode="$" d="M29 268l235 152q84 -127 195 -148v322q-100 37 -172 76t-118 88t-68.5 112.5t-22.5 149.5t27.5 158.5t77.5 128t120 89.5t156 42v133h94v-133q133 -10 225 -71.5t152 -156.5l-203 -163q-41 47 -84 71.5t-90 34.5v-276q111 -47 188.5 -91.5t127 -96.5t71 -116.5 t21.5 -150.5q0 -193 -105.5 -304.5t-302.5 -125.5v-185h-94v185q-154 8 -254.5 80.5t-175.5 195.5zM362 1034q0 -37 26 -64.5t71 -49.5v233q-43 -10 -70 -42t-27 -77zM553 274q61 10 86 48.5t25 87.5q0 53 -31 87.5t-80 59.5v-283z" />
<glyph unicode="%" horiz-adv-x="1576" d="M98 801v401q0 55 21.5 98t58.5 74t84 46.5t100 15.5q55 0 103.5 -15.5t84.5 -46.5t57.5 -74t21.5 -98v-401q0 -55 -21.5 -98.5t-58.5 -73t-85 -46t-102 -16.5q-53 0 -101 16.5t-84 46t-57.5 72.5t-21.5 99zM303 -35l758 1495h188l-760 -1495h-186zM305 807 q0 -23 15.5 -38t41.5 -15q25 0 40.5 15t15.5 38v389q0 25 -14.5 40t-43.5 15q-27 0 -41 -15t-14 -40v-389zM948 227v402q0 55 21.5 98t58.5 73.5t84 46t100 15.5q55 0 103.5 -15.5t84.5 -46t57.5 -73.5t21.5 -98v-402q0 -55 -21.5 -98t-58.5 -72.5t-85 -46t-102 -16.5 q-53 0 -101 16.5t-84 46t-57.5 72.5t-21.5 98zM1155 233q0 -23 15.5 -38t41.5 -15q25 0 40.5 15.5t15.5 37.5v390q0 25 -14.5 40t-43.5 15q-27 0 -41 -15.5t-14 -39.5v-390z" />
<glyph unicode="&#x26;" horiz-adv-x="1189" d="M111 373q0 125 53 223t158 184q-55 82 -89 153t-34 157q0 76 24.5 139t70.5 109t112.5 72t150.5 26q104 0 202.5 -39t176.5 -144l-188 -168q-49 59 -93.5 80t-85.5 21q-49 0 -73.5 -30t-24.5 -66q0 -37 16.5 -77t49.5 -91l258 -390q10 33 19 82.5t13 90.5l246 -35 q-8 -96 -37.5 -196.5t-72.5 -174.5q8 -16 37.5 -59t63.5 -90.5t63.5 -90.5t39.5 -59h-317l-64 94q-66 -55 -142.5 -80.5t-156.5 -25.5q-92 0 -162.5 29.5t-118.5 82t-71.5 123t-23.5 150.5zM375 383q0 -59 32.5 -100t98.5 -41q39 0 75.5 15t65.5 38l-184 272 q-41 -41 -64.5 -86t-23.5 -98z" />
<glyph unicode="'" horiz-adv-x="471" d="M129 969v456h219v-456h-219z" />
<glyph unicode="(" horiz-adv-x="686" d="M123 627q0 129 27.5 248.5t74.5 230.5t110.5 211t135.5 190l176 -98q-61 -92 -107 -190.5t-77 -197.5t-46.5 -196.5t-15.5 -187.5q0 -98 16.5 -200.5t48.5 -204t77 -198.5t102 -184l-160 -112q-78 94 -143.5 197.5t-114.5 216t-76.5 231.5t-27.5 244z" />
<glyph unicode=")" horiz-adv-x="686" d="M111 1409l176 98q72 -90 135 -190t111.5 -211t76 -230.5t27.5 -248.5q0 -125 -27.5 -244t-77 -231.5t-116 -216t-142.5 -197.5l-161 112q57 86 103 183.5t78 199t48 204t16 200.5q0 90 -15 187.5t-47 196.5t-78 197.5t-107 190.5z" />
<glyph unicode="*" horiz-adv-x="878" d="M78 1077l61 189l226 -92l-25 247h207l-25 -247l223 92l64 -189l-240 -59l164 -191l-166 -118l-125 213l-131 -213l-164 118l164 191z" />
<glyph unicode="+" d="M39 494v233h342v342h240v-342h342v-233h-342v-344h-240v344h-342z" />
<glyph unicode="," horiz-adv-x="546" d="M113 -311l73 307h-67v328h313v-318l-166 -317h-153z" />
<glyph unicode="-" horiz-adv-x="843" d="M98 418v256h658v-256h-658z" />
<glyph unicode="." horiz-adv-x="538" d="M115 0v324h311v-324h-311z" />
<glyph unicode="/" horiz-adv-x="673" d="M-16 -86l450 1571h228l-453 -1571h-225z" />
<glyph unicode="0" d="M123 367v690q0 90 31.5 160.5t86 118.5t125 74t150.5 26t151.5 -26t125 -74t84 -118.5t30.5 -160.5v-690q0 -90 -31.5 -160t-85 -118t-124 -73.5t-150.5 -25.5t-151.5 25.5t-125 73.5t-85 117.5t-31.5 160.5zM410 369q0 -53 29.5 -80t76.5 -27q45 0 75 26.5t30 80.5v688 q0 53 -30 79.5t-75 26.5q-47 0 -76.5 -26.5t-29.5 -79.5v-688z" />
<glyph unicode="1" d="M258 946v311l229 168h258v-1425h-286v1094z" />
<glyph unicode="2" d="M84 1030q6 98 40 174t88 127t125 78t148 27q190 0 296 -97.5t106 -281.5q0 -88 -23.5 -160t-70.5 -145l-332 -476h416v-276h-785v250l461 651q23 35 31 70t8 73q0 43 -25.5 81t-79.5 38q-41 0 -77.5 -36.5t-42.5 -137.5z" />
<glyph unicode="3" d="M82 375l283 37q0 -45 11 -74t28.5 -46.5t39 -23.5t43.5 -6q47 0 84 35t37 121q0 102 -31.5 151t-117.5 49h-92v234h102q78 0 109.5 43t31.5 117q0 25 -6 51.5t-19.5 48t-35 35.5t-51.5 14q-39 0 -75 -30.5t-44 -126.5l-279 43q8 92 45 164.5t91.5 122.5t124 76t147.5 26 q121 0 198.5 -37t121.5 -95.5t61.5 -132t17.5 -147.5q0 -37 -8 -79t-26.5 -82t-47 -73t-69.5 -51q55 -37 85.5 -74.5t46 -79.5t19.5 -87t4 -95q0 -92 -28.5 -168.5t-83 -131t-133 -84t-177.5 -29.5q-84 0 -154.5 22.5t-124.5 69.5t-87 119.5t-41 173.5z" />
<glyph unicode="4" d="M53 199v233l400 993h303l-385 -958h192v313h285v-313h98v-268h-98v-199h-285v199h-510z" />
<glyph unicode="5" d="M115 420h286q2 -92 33 -123t78 -31q68 0 87 66.5t19 165.5q0 45 -3 86t-14 69.5t-32.5 46t-58.5 17.5q-27 0 -60.5 -18.5t-54.5 -77.5h-252v804h742v-268h-467v-237h10q41 35 91 44t75 9q88 0 148.5 -32t98.5 -92.5t54 -146.5t16 -192q0 -121 -21.5 -217t-68.5 -164 t-122.5 -103.5t-184.5 -35.5q-84 0 -155.5 18.5t-125 67.5t-85 132t-33.5 212z" />
<glyph unicode="6" d="M121 432q0 74 14.5 149.5t36.5 125.5l324 718h319q-66 -145 -125 -292.5t-129 -288.5l6 -6q16 6 39 9t35 3q51 0 100.5 -21.5t87 -69.5t61 -123t23.5 -181q0 -223 -98 -344t-307 -121q-188 0 -287.5 102.5t-99.5 339.5zM410 440q0 -98 23.5 -138t78.5 -40q66 0 87.5 48 t21.5 155q0 86 -25 121t-76 35q-53 0 -81.5 -41t-28.5 -140z" />
<glyph unicode="7" d="M111 989v436h788v-245l-432 -1180h-297l410 1153h-193v-164h-276z" />
<glyph unicode="8" d="M106 422q0 41 6.5 87t23 89t45 80t75.5 59v11q-41 18 -66.5 49.5t-41 68.5t-21.5 78t-6 80q0 90 24.5 166t73.5 130t122 85t169 31q186 0 291.5 -100.5t105.5 -311.5q0 -41 -6 -82t-21.5 -78t-42 -67.5t-67.5 -48.5l2 -11q45 -18 73.5 -54t45 -80t23 -91t6.5 -90 q0 -119 -33 -201t-89.5 -133t-131 -74.5t-156.5 -23.5t-155.5 23.5t-129 74.5t-87.5 133t-32 201zM395 446q0 -100 29 -142t88 -42q66 0 93.5 51.5t27.5 137.5q0 78 -29 120.5t-92 42.5q-59 0 -88 -46t-29 -122zM410 1016q0 -86 25.5 -121t78.5 -35q57 0 82 42t25 118 q0 68 -26 105.5t-81 37.5q-53 0 -78.5 -40t-25.5 -107z" />
<glyph unicode="9" d="M117 973q0 223 94 343t303 120q109 0 183.5 -30t121.5 -86t68.5 -137t21.5 -184q0 -37 -4 -77.5t-11 -78.5t-17.5 -72t-20.5 -54l-321 -717h-320l252 582l-6 6q-16 -6 -34.5 -9.5t-31.5 -3.5q-129 0 -203.5 93.5t-74.5 304.5zM410 950q0 -78 23.5 -111.5t72.5 -33.5 q57 0 83.5 41t31.5 139q0 92 -23 135t-78 43q-66 0 -88 -50t-22 -163z" />
<glyph unicode=":" horiz-adv-x="544" d="M117 0v324h311v-324h-311zM117 541v321h311v-321h-311z" />
<glyph unicode=";" horiz-adv-x="550" d="M115 -311l73 307h-67v328h313v-318l-166 -317h-153zM121 541v321h311v-321h-311z" />
<glyph unicode="&#x3c;" d="M37 510v209l926 424v-271l-615 -260l610 -258v-270z" />
<glyph unicode="=" d="M37 291v227h926v-227h-926zM37 709v227h926v-227h-926z" />
<glyph unicode="&#x3e;" d="M39 872v271l926 -424v-209l-922 -426v270l612 258z" />
<glyph unicode="?" horiz-adv-x="960" d="M61 1022q6 100 42 177t92.5 129t131 80t160.5 28q201 0 304.5 -108t103.5 -286q0 -90 -22.5 -146t-57.5 -108q-27 -39 -56.5 -75.5t-55 -76.5t-43 -85t-17.5 -96v-62h-287v68q0 84 13.5 140t52.5 118q29 47 57.5 90t52 83t38 78t14.5 74q0 16 -5.5 37t-17.5 38.5 t-33.5 29.5t-56.5 12q-51 0 -87 -39t-38 -133q-72 10 -142.5 17.5t-142.5 15.5zM358 0v272h283v-272h-283z" />
<glyph unicode="@" horiz-adv-x="1773" d="M127 684q0 172 56.5 318.5t159.5 255t247.5 170t322.5 61.5q174 0 310.5 -53.5t229.5 -146.5t141 -222t48 -281q0 -119 -27.5 -216t-78.5 -165.5t-127 -106.5t-170 -38q-23 0 -53.5 6t-62 20.5t-60.5 37t-43 55.5l-8 2q-33 -51 -92.5 -83t-124.5 -32q-123 0 -189.5 68.5 t-66.5 187.5q0 53 17 100.5t53 83t90.5 56t127.5 20.5h136v43q0 29 -19.5 56.5t-87.5 27.5q-43 0 -72.5 -15t-58.5 -56l-164 106q49 92 132 133t186 41q66 0 123 -13t99 -45t66.5 -84t24.5 -128v-4l-2 -312q0 -31 21.5 -56t56.5 -25q84 0 129 82.5t45 250.5q0 117 -37 214.5 t-105.5 166t-167 106.5t-219.5 38q-141 0 -249.5 -51.5t-184.5 -137.5t-114.5 -199.5t-38.5 -238.5q0 -145 43 -260t121.5 -196t187 -124t240.5 -43q121 0 215 25t196 78l74 -176q-119 -51 -231.5 -80t-243.5 -29q-172 0 -319.5 50t-254 151.5t-167 253t-60.5 352.5z M770 539q0 -25 18.5 -48.5t69.5 -23.5q43 0 74 24.5t31 73.5v53h-105q-47 0 -67.5 -21.5t-20.5 -57.5z" />
<glyph unicode="A" horiz-adv-x="1136" d="M6 0l412 1425h295l411 -1425h-319l-70 291h-338q-18 -72 -37.5 -145.5t-40.5 -145.5h-313zM463 555h205l-39 203l-58 284h-10l-57 -282z" />
<glyph unicode="B" horiz-adv-x="1110" d="M125 0v1425h461q209 0 317.5 -106.5t108.5 -294.5q0 -80 -39 -159t-129 -115v-11q49 -16 84 -49t57.5 -75t32.5 -89t10 -92q0 -104 -30.5 -185t-86 -136.5t-133.5 -84t-172 -28.5h-481zM422 281h164q88 0 120.5 49t32.5 121t-35.5 114.5t-115.5 42.5h-166v-327zM422 866 h147q82 0 117 41t35 107q0 72 -35 106.5t-119 34.5h-145v-289z" />
<glyph unicode="C" horiz-adv-x="1052" d="M92 471v508q0 80 24.5 161t79 146.5t141.5 107.5t212 42q98 0 176 -30t133 -79t90 -113.5t49 -134.5l-280 -84q-4 20 -13.5 48t-30 50.5t-51 39t-73.5 16.5q-45 0 -76 -15.5t-49 -39t-26.5 -51t-8.5 -52.5v-528q0 -82 36 -135.5t124 -53.5q61 0 108.5 40t55.5 110 l282 -82q-31 -166 -151.5 -260t-294.5 -94q-123 0 -210 39t-141.5 105.5t-80 154.5t-25.5 184z" />
<glyph unicode="D" horiz-adv-x="1130" d="M125 0v1425h471q143 0 244.5 -53t148.5 -176q29 -72 34 -177.5t5 -234.5q0 -186 -2 -316t-37 -222q-27 -72 -68.5 -119t-97 -74.5t-120 -40t-134.5 -12.5h-444zM420 274h125q113 0 150.5 57.5t37.5 157.5v345q0 61 -6 118.5t-25.5 101.5t-57.5 69.5t-101 25.5h-123v-875z " />
<glyph unicode="E" d="M125 0v1425h829v-274h-532v-295h459v-272h-459v-303h532v-281h-829z" />
<glyph unicode="F" horiz-adv-x="983" d="M125 0v1425h829v-274h-532v-301h459v-270h-459v-580h-297z" />
<glyph unicode="G" horiz-adv-x="1103" d="M102 471v508q0 80 25 161t79 146.5t141 107.5t212 42q98 0 176 -30t133.5 -79t90 -113.5t49.5 -134.5l-281 -84q-4 20 -13 48t-29.5 50.5t-51.5 39t-74 16.5q-45 0 -75.5 -15.5t-49 -39t-27 -51t-8.5 -52.5v-528q0 -80 36 -135.5t122 -55.5q94 0 132 46.5t38 111.5v111 h-192v252h487v-310q0 -111 -28.5 -202t-87 -156.5t-145.5 -101t-202 -35.5q-123 0 -210 39t-141 105.5t-80 154.5t-26 184z" />
<glyph unicode="H" horiz-adv-x="1161" d="M123 0v1425h297v-569h323v569h293v-1425h-293v586h-323v-586h-297z" />
<glyph unicode="I" horiz-adv-x="548" d="M129 0v1425h297v-1425h-297z" />
<glyph unicode="J" horiz-adv-x="892" d="M-16 170l194 199q18 -29 41 -48.5t46.5 -32t46 -17.5t38.5 -5q63 0 97 42t34 106v1011h295v-1022q0 -111 -32.5 -188.5t-89 -127.5t-133.5 -73.5t-163 -23.5q-111 0 -206 41t-168 139z" />
<glyph unicode="K" horiz-adv-x="1130" d="M123 0v1425h297v-528h10q18 27 36.5 58.5t53.5 88t93.5 146.5t156.5 235h352l-397 -583q106 -211 212.5 -421t215.5 -421h-336q-72 141 -138.5 282.5t-137.5 284.5l-121 -186v-381h-297z" />
<glyph unicode="L" horiz-adv-x="987" d="M125 0v1425h297v-1144h532v-281h-829z" />
<glyph unicode="M" horiz-adv-x="1396" d="M119 0v1425h272l166 -397l141 -356h11l137 358l164 395h278v-1425h-295v672l-8 2l-98 -256l-76 -185h-213l-80 197l-96 246l-8 -2v-674h-295z" />
<glyph unicode="N" horiz-adv-x="1220" d="M121 0v1425h262l233 -426l187 -344l6 2v768h295v-1425h-260l-264 475l-156 301l-6 -2v-774h-297z" />
<glyph unicode="O" horiz-adv-x="1095" d="M90 471v508q0 80 24.5 161t80 146.5t142.5 107.5t212 42q117 0 203 -40t141 -104.5t83 -146.5t28 -166v-530q0 -106 -34 -191.5t-94.5 -146t-143.5 -92t-183 -31.5q-123 0 -210 39t-142.5 105.5t-81 154.5t-25.5 184zM385 463q0 -82 38 -135.5t126 -53.5q63 0 109.5 41 t46.5 113v563q0 20 -7.5 47t-26 51.5t-48 42t-74.5 17.5t-76 -15.5t-50.5 -39t-28.5 -51t-9 -52.5v-528z" />
<glyph unicode="P" horiz-adv-x="1062" d="M125 0v1425h453q100 0 185 -26.5t145.5 -81.5t94 -140t33.5 -202q0 -102 -30.5 -186t-88 -143.5t-139.5 -92.5t-184 -33h-172v-520h-297zM422 797h158q66 0 115.5 41t49.5 141q0 92 -45 132t-122 40h-156v-354z" />
<glyph unicode="Q" horiz-adv-x="1110" d="M100 471v508q0 80 25 161t80 146.5t142 107.5t212 42q117 0 203 -40t141 -104.5t83 -146.5t28 -166v-530q0 -123 -43 -218l143 -118l-137 -158l-141 115q-113 -82 -277 -82q-123 0 -210 39t-142 105.5t-81 154.5t-26 184zM395 463q0 -82 38 -135.5t126 -53.5q16 0 25 2 l-49 119l63 74l113 -20l4 -5v547q0 20 -7.5 47t-25.5 51.5t-48 42t-75 17.5t-75.5 -15.5t-50 -39t-29 -51t-9.5 -52.5v-528z" />
<glyph unicode="R" horiz-adv-x="1124" d="M125 0v1425h471q90 0 171 -24.5t141.5 -75.5t95 -130t34.5 -189q0 -137 -53 -235.5t-156 -154.5l230 -616h-322l-190 563h-125v-563h-297zM422 834h160q72 0 122 38t50 132q0 82 -46 116.5t-118 34.5h-168v-321z" />
<glyph unicode="S" horiz-adv-x="1083" d="M63 231l234 189q55 -78 115.5 -115t138.5 -37q94 0 130 41t36 101q0 41 -19.5 70.5t-53.5 52t-79 39t-98 30.5q-98 31 -168 70t-114 88t-64.5 112.5t-20.5 143.5q0 92 33 169t92.5 133t142.5 87t183 31q162 0 265.5 -50.5t174.5 -148.5l-213 -201q-102 121 -227 121 q-66 0 -108 -35t-42 -92q0 -31 20.5 -55.5t55.5 -45t82 -39t100 -34.5q106 -33 178 -75t115 -96t60.5 -119.5t17.5 -143.5q0 -205 -126 -318.5t-357 -113.5q-90 0 -163 18.5t-131 50t-105.5 75.5t-84.5 97z" />
<glyph unicode="T" horiz-adv-x="937" d="M12 1155v270h906v-270h-306v-1155h-295v1155h-305z" />
<glyph unicode="U" horiz-adv-x="1128" d="M109 471v954h294v-962q0 -82 38 -135.5t126 -53.5q63 0 109.5 44t46.5 116v991h299v-976q0 -106 -34 -191.5t-94 -146t-143 -92t-184 -31.5q-123 0 -210 39t-142 105.5t-80.5 154.5t-25.5 184z" />
<glyph unicode="V" horiz-adv-x="1079" d="M4 1425h320l133 -591l80 -394h10l76 387l133 598h317l-387 -1425h-295z" />
<glyph unicode="W" horiz-adv-x="1531" d="M8 1423h324q23 -131 45 -259t43 -257q12 -72 22.5 -142.5t22.5 -141.5h8q23 98 43.5 197.5t42.5 197.5l92 405h232q25 -102 48 -203.5t46 -203.5q23 -100 44 -200.5t44 -201.5h10q10 72 20.5 141.5t20.5 141.5l84 526h324l-301 -1425h-267q-27 111 -55.5 222.5 t-54.5 221.5l-74 306h-8q-18 -78 -36.5 -155t-39.5 -155q-25 -111 -55.5 -221.5t-57.5 -218.5h-266z" />
<glyph unicode="X" horiz-adv-x="1105" d="M2 0l389 735l-364 690h342q45 -98 89 -196.5t89 -194.5l184 391h342l-368 -690l393 -735h-342l-205 434l-209 -434h-340z" />
<glyph unicode="Y" horiz-adv-x="1044" d="M10 1430h330l94 -291l84 -273h12l88 275l105 284h315l-368 -854v-571h-291v571z" />
<glyph unicode="Z" horiz-adv-x="931" d="M51 0v258l484 897h-461v270h807v-249l-482 -895h482v-281h-830z" />
<glyph unicode="[" horiz-adv-x="587" d="M131 -201v1631h422v-209h-158v-1215h158v-207h-422z" />
<glyph unicode="\" horiz-adv-x="673" d="M-6 1485h227l451 -1571h-226z" />
<glyph unicode="]" horiz-adv-x="587" d="M35 4h155v1217h-155v209h420v-1633h-420v207z" />
<glyph unicode="^" d="M27 555l368 868h209q92 -217 184.5 -434t186.5 -434h-268l-205 539l-207 -539h-268z" />
<glyph unicode="_" horiz-adv-x="1024" d="M0 -141h1024v-187h-1024v187z" />
<glyph unicode="`" horiz-adv-x="923" d="M246 1464l248 103l198 -389l-157 -84z" />
<glyph unicode="a" horiz-adv-x="946" d="M66 303q0 63 21.5 119.5t64.5 99.5t107.5 67.5t152.5 24.5h163v60q0 33 -24.5 65.5t-93.5 32.5q-53 0 -94 -17.5t-70 -66.5l-207 131q57 113 154.5 159t224.5 46q86 0 159.5 -16.5t126 -54.5t82 -100t29.5 -157v-696h-287v82l-8 2q-39 -51 -98 -72.5t-107 -21.5 q-150 0 -223 80t-73 233zM344 324q0 -29 23.5 -56.5t85.5 -27.5q49 0 85.5 28.5t36.5 83.5v62h-124q-57 0 -82 -24.5t-25 -65.5z" />
<glyph unicode="b" horiz-adv-x="956" d="M94 0v1487h287v-549l8 -2q14 20 37 36.5t48.5 29t51 18.5t45.5 6q111 0 174.5 -47t94 -122t39 -166t8.5 -177q0 -82 -8.5 -175t-41 -171t-97 -130t-177.5 -52q-45 0 -93 24.5t-83 69.5l-6 -4v-76h-287zM381 502q0 -119 18.5 -181.5t85.5 -62.5q35 0 55.5 20.5t32 55.5 t15.5 84t4 104q0 41 -3 83t-14.5 76t-33 55.5t-58.5 21.5t-57 -24.5t-30.5 -62.5t-12.5 -83t-2 -86z" />
<glyph unicode="c" horiz-adv-x="864" d="M59 502q0 111 19.5 207t65.5 166.5t122 110.5t189 40q129 0 225 -59.5t137 -175.5l-242 -117q-23 49 -47 69.5t-59 20.5q-78 0 -99.5 -71.5t-21.5 -190.5q0 -129 23.5 -189.5t97.5 -60.5q37 0 61.5 21.5t47.5 66.5l241 -119q-41 -113 -136 -172t-224 -59q-115 0 -192 38 t-123 106.5t-65.5 162.5t-19.5 205z" />
<glyph unicode="d" horiz-adv-x="956" d="M76 514q0 92 11 183t46 164t98.5 119t167.5 46q39 0 92.5 -23.5t81.5 -62.5l9 2v545h286v-1487h-286v72l-7 4q-35 -45 -85 -65.5t-95 -20.5q-115 0 -179 47t-95 121.5t-38 169t-7 186.5zM371 522q0 -55 4 -104t15 -84t31.5 -55.5t55.5 -20.5q68 0 86.5 62.5t18.5 181.5 q0 41 -2 86t-13.5 83t-32 62.5t-57.5 24.5t-58.5 -21.5t-31.5 -55.5t-13 -76t-3 -83z" />
<glyph unicode="e" horiz-adv-x="950" d="M74 506q0 119 20.5 215t67.5 163.5t125 104.5t194 37q123 0 201 -41t122 -109.5t60.5 -160.5t16.5 -197v-80h-516v-16q0 -35 4 -65.5t16 -54t33.5 -37t56.5 -13.5q43 0 78 19.5t70 70.5l239 -129q-53 -115 -157.5 -169t-227.5 -54q-113 0 -189.5 34.5t-124.5 101.5 t-68.5 162t-20.5 218zM365 618h215q0 27 -4.5 53.5t-15.5 47t-32.5 33t-56.5 12.5q-29 0 -49.5 -13.5t-32.5 -34t-17 -47t-7 -51.5z" />
<glyph unicode="f" horiz-adv-x="604" d="M35 791v223h102v178q0 76 23.5 132t63.5 92t94.5 53.5t113.5 17.5h160v-250h-94q-35 0 -55.5 -21.5t-20.5 -58.5v-143h172v-223h-172v-791h-285v791h-102z" />
<glyph unicode="g" horiz-adv-x="956" d="M66 506q0 82 8 173t39.5 168t95 127t174.5 50q45 0 96 -22.5t86 -67.5l6 4v76h287v-1028q0 -92 -25.5 -167t-76.5 -128t-128 -83t-177 -30q-227 0 -363 160l201 186q70 -86 162 -86q49 0 84.5 29t35.5 80v147l-8 2q-14 -20 -36.5 -36.5t-48 -29t-51.5 -19.5t-46 -7 q-111 0 -174.5 46t-95 118t-38.5 162t-7 176zM356 498q0 -41 3 -81t13.5 -72t32 -51.5t58.5 -19.5t58.5 22.5t32.5 57.5t14 79t3 85q0 119 -20.5 178.5t-87.5 59.5q-35 0 -55.5 -19.5t-31.5 -53.5t-15.5 -82t-4.5 -103z" />
<glyph unicode="h" horiz-adv-x="987" d="M109 0v1487h286v-549l11 -2q35 35 85 61.5t103 26.5q141 0 218 -87t77 -228v-709h-287v641q0 59 -29.5 87t-70.5 28q-45 0 -76 -30t-31 -87v-639h-286z" />
<glyph unicode="i" horiz-adv-x="518" d="M117 0v1014h286v-1014h-286zM117 1165v260h286v-260h-286z" />
<glyph unicode="j" horiz-adv-x="524" d="M-23 -147h52q57 0 74.5 40.5t17.5 92.5v1030h287v-1106q0 -156 -97.5 -236t-261.5 -80h-72v259zM121 1165v260h287v-260h-287z" />
<glyph unicode="k" horiz-adv-x="989" d="M109 0v1483h284v-764h6l217 293h363l-330 -402l348 -610h-344l-198 377l-62 -84v-293h-284z" />
<glyph unicode="l" horiz-adv-x="532" d="M98 283v1204h287v-1141q0 -59 21.5 -77.5t62.5 -18.5h33v-254h-105q-143 0 -221 64.5t-78 222.5z" />
<glyph unicode="m" horiz-adv-x="1490" d="M111 0v1014h286v-90l11 -2q35 43 91 72.5t107 29.5q88 0 146.5 -34t95.5 -97q47 57 109.5 94t132.5 37q86 0 143 -29.5t91 -81t47 -117t13 -137.5v-659h-286v643q0 59 -30 87t-71 28q-45 0 -75.5 -29t-30.5 -84v-645h-287v643q0 59 -29.5 87t-70.5 28q-45 0 -76 -30 t-31 -87v-641h-286z" />
<glyph unicode="n" horiz-adv-x="987" d="M104 0v1014h287v-82l8 -2q35 41 87.5 67.5t105.5 26.5q154 0 223.5 -84t69.5 -227v-713h-287v641q0 59 -29.5 87t-70.5 28q-45 0 -76 -30t-31 -87v-639h-287z" />
<glyph unicode="o" horiz-adv-x="940" d="M74 504q2 86 10 173t31 140q43 98 132 154.5t232 56.5q141 0 224 -55t118 -139q29 -66 37 -149t8 -181q0 -109 -11 -188.5t-40 -139.5q-53 -109 -146.5 -149.5t-209.5 -40.5q-104 0 -177 32.5t-120 92.5q-49 66 -68.5 162t-19.5 231zM358 500q0 -51 3.5 -98.5t17.5 -82.5 q25 -69 90 -69h2q14 0 29.5 3t30 14.5t25.5 33t17 55.5q4 29 7.5 71t3.5 97q0 106 -21 166q-27 74 -88 74q-68 0 -96 -72q-12 -35 -16.5 -81t-4.5 -111z" />
<glyph unicode="p" horiz-adv-x="956" d="M98 -412v1426h287v-72l6 -4q35 45 85 65.5t95 20.5q113 0 176.5 -51t95 -129t40 -170t8.5 -174q0 -92 -10.5 -183.5t-44 -164t-97 -118.5t-170.5 -46q-20 0 -44.5 6t-49 17.5t-46 26.5t-36.5 36l-8 -2v-484h-287zM385 510q0 -41 3 -86t13.5 -82t32 -61.5t58.5 -24.5 t58 23.5t32.5 59.5t14.5 80t3 85q0 55 -3 102t-14.5 80t-32 51.5t-54.5 18.5q-68 0 -89.5 -63.5t-21.5 -182.5z" />
<glyph unicode="q" horiz-adv-x="956" d="M78 498q0 88 10 180t43 169t96.5 126t171.5 49q45 0 95.5 -22.5t85.5 -67.5l6 4v76h286v-1424h-286v486l-8 2q-14 -20 -37 -36.5t-48.5 -29t-51 -18.5t-46.5 -6q-104 0 -166.5 43t-96.5 114.5t-44 163.5t-10 191zM371 489q0 -41 3 -82.5t14 -75.5t32.5 -55.5t56.5 -21.5 q37 0 58.5 24.5t33 62.5t14.5 83t3 86q0 119 -20.5 180.5t-88.5 61.5q-35 0 -55.5 -19.5t-31.5 -55.5t-15 -84t-4 -104z" />
<glyph unicode="r" horiz-adv-x="745" d="M113 -2v1016h284v-113l6 -2q39 68 96.5 96.5t125.5 28.5q33 0 62.5 -6t55.5 -25l-51 -266q-35 16 -65.5 22.5t-59.5 6.5q-76 0 -121 -40t-45 -132v-586h-288z" />
<glyph unicode="s" horiz-adv-x="905" d="M51 172l199 168q39 -57 87 -79.5t107 -22.5q57 0 88 24.5t31 52.5q0 35 -22.5 52.5t-75.5 27.5q-68 12 -137.5 31.5t-125 54.5t-91 89.5t-35.5 138.5q0 74 30.5 132t83 99t121 62.5t146.5 21.5q137 0 226 -41t155 -113l-172 -180q-39 45 -85 65.5t-112 20.5 q-59 0 -81.5 -20.5t-22.5 -40.5q0 -18 12 -30.5t32.5 -21t44 -14.5t48.5 -10q70 -14 134 -34.5t113.5 -57.5t78 -93.5t28.5 -140.5q0 -145 -107.5 -234t-295.5 -89q-139 0 -234.5 42t-167.5 140z" />
<glyph unicode="t" horiz-adv-x="624" d="M49 791v225h103v272h274v-272h135v-225h-133v-437q0 -51 17.5 -75.5t72.5 -24.5h43v-254h-135q-135 0 -205.5 77t-70.5 189v525h-101z" />
<glyph unicode="u" horiz-adv-x="987" d="M106 301v713h287v-641q0 -59 30 -87t71 -28q45 0 75.5 29.5t30.5 87.5v639h287v-1014h-287v82l-8 2q-35 -41 -87 -67.5t-106 -26.5q-154 0 -223.5 84t-69.5 227z" />
<glyph unicode="v" horiz-adv-x="927" d="M8 1012h314q25 -98 46 -193.5t44 -193.5l49 -234h10q10 57 22.5 113.5t24.5 113.5q20 98 44 196.5t46 197.5h310l-318 -1012h-274q-78 256 -158 506t-160 506z" />
<glyph unicode="w" horiz-adv-x="1368" d="M14 1014h305l54 -301l53 -289h10l62 289l61 301h250l63 -303l66 -287h10l53 291l52 299h299l-269 -1014h-278l-55 227l-62 277h-8l-62 -275l-57 -229h-276z" />
<glyph unicode="x" horiz-adv-x="960" d="M6 0l313 516l-301 498h332l127 -275h2l127 275h328l-305 -498l319 -516h-332q-35 72 -69.5 145.5t-69.5 145.5l-141 -291h-330z" />
<glyph unicode="y" horiz-adv-x="905" d="M2 1014h307l70 -328l63 -280h11l65 278l82 330h299l-379 -1192q-39 -123 -118.5 -177.5t-194.5 -54.5h-101v246h60q84 0 115 105l32 112z" />
<glyph unicode="z" horiz-adv-x="833" d="M57 0v246l377 518h-350v250h690v-232l-379 -520h379v-262h-717z" />
<glyph unicode="{" horiz-adv-x="587" d="M23 522v191q68 4 103.5 46t35.5 134v281q0 117 67.5 184t165.5 67h170v-202h-65q-33 0 -54.5 -29t-21.5 -76v-258q0 -90 -40 -150t-99 -89q63 -35 101 -92.5t38 -155.5v-242q0 -25 2 -48.5t9 -41.5t22.5 -29.5t42.5 -11.5h65v-201h-170q-98 0 -165.5 67.5t-67.5 184.5 v291q0 92 -37 135t-102 45z" />
<glyph unicode="|" horiz-adv-x="530" d="M145 -399v1894h238v-1894h-238z" />
<glyph unicode="}" horiz-adv-x="587" d="M25 0h65q27 0 42 11.5t22.5 29.5t9.5 41.5t2 48.5v242q0 98 38 155.5t101 92.5q-59 29 -99 89t-40 150v258q0 47 -21.5 76t-54.5 29h-65v202h170q98 0 165.5 -67.5t67.5 -183.5v-281q0 -92 36 -134t103 -46v-191q-66 -2 -102.5 -45t-36.5 -135v-291q0 -117 -67.5 -184.5 t-165.5 -67.5h-170v201z" />
<glyph unicode="~" d="M51 512q57 121 126 184.5t173 63.5q43 0 85 -17.5t79 -38t69.5 -37t61.5 -16.5q72 0 156 111l153 -92q-59 -131 -127.5 -188.5t-146.5 -57.5q-45 0 -88 16.5t-82 37t-75 36.5t-66 16q-39 0 -79 -22.5t-89 -87.5z" />
<glyph unicode="&#xa1;" horiz-adv-x="583" d="M154 -412l20 1022h242l20 -1022h-282zM154 741v273h280v-273h-280z" />
<glyph unicode="&#xa2;" d="M121 502q0 106 17.5 199.5t59.5 163t111.5 111.5t173.5 48v168h70v-168q117 -8 203 -67.5t123 -165.5l-242 -117q-20 41 -38.5 61.5t-45.5 26.5v-508q47 10 86 86l242 -119q-39 -106 -125 -164.5t-203 -64.5v-193h-70v193q-104 6 -173.5 46t-111.5 107.5t-59.5 158.5 t-17.5 198zM410 502q0 -104 14 -163.5t59 -78.5v494q-47 -23 -60 -88.5t-13 -163.5z" />
<glyph unicode="&#xa3;" d="M61 549v211h117q-23 82 -47.5 151.5t-24.5 149.5q0 78 27 146.5t79 118.5t129 80t175 30q158 0 260.5 -69t159.5 -232l-250 -111q-33 76 -70 107.5t-90 31.5q-37 0 -77.5 -30.5t-40.5 -88.5q0 -31 9 -62.5t22.5 -65t26.5 -72.5t23 -84h246v-211h-243q-12 -170 -74 -293 h493v-256h-843v225q55 74 85.5 147.5t39.5 176.5h-132z" />
<glyph unicode="&#xa5;" d="M-2 1425h317q29 -76 57.5 -154.5t51.5 -156.5l74 -248h12q18 59 33.5 126t38.5 126l106 307h318l-289 -690h168v-153h-228l-10 -21v-63h238v-154h-238v-344h-291v344h-231v154h231v63l-10 21h-221v153h160z" />
<glyph unicode="&#xa7;" horiz-adv-x="956" d="M55 14l160 183q66 -59 128.5 -88t111.5 -29q72 0 106.5 27.5t34.5 70.5q0 25 -12.5 45.5t-40 42t-74.5 44t-115 50.5q-66 27 -116 56.5t-84.5 67.5t-52 86t-17.5 116q0 66 38 123t93 84q-94 88 -94 207q0 76 28.5 137t79 105t119 68t148.5 24q111 0 203 -29t188 -105 q-37 -47 -74 -95t-76 -95q-74 55 -134 70.5t-114 15.5q-57 0 -82.5 -20.5t-25.5 -53.5q0 -31 25.5 -56.5t62.5 -48t79 -42t75 -35.5q51 -25 100 -52.5t87 -65.5t60.5 -89t22.5 -123t-34 -127t-85 -84q45 -45 66.5 -100t21.5 -109q0 -80 -30.5 -143t-86 -108t-130 -69 t-162.5 -24q-106 0 -211 45.5t-187 122.5zM338 694q0 -49 82 -90q41 -20 86 -37.5t92 -38.5q37 23 37 72q0 37 -36 67.5t-134 67.5q-35 10 -78 31q-49 -27 -49 -72z" />
<glyph unicode="&#xa8;" horiz-adv-x="882" d="M106 1143v266h273v-266h-273zM508 1143v266h274v-266h-274z" />
<glyph unicode="&#xa9;" horiz-adv-x="1560" d="M98 698q0 158 48.5 291t136.5 230.5t213 152.5t278 55q152 0 277 -54t214 -151.5t137 -230.5t48 -293q0 -156 -48 -287.5t-137 -229t-214 -152t-277 -54.5q-154 0 -278.5 53.5t-212.5 149.5t-136.5 229.5t-48.5 290.5zM274 698q0 -117 36 -220t101.5 -179t158 -120 t204.5 -44q115 0 208 44t157.5 120t99.5 179.5t35 219.5q0 123 -36 226.5t-100.5 180.5t-157.5 120t-206 43q-117 0 -209 -44t-156.5 -121t-99.5 -181.5t-35 -223.5zM483 549v260q0 66 17.5 125t52.5 103t90 70t131 26q117 0 193.5 -63.5t95.5 -162.5l-176 -53 q-8 43 -36 71.5t-75 28.5q-35 0 -56.5 -12t-32.5 -32.5t-15 -45t-4 -51.5v-258q0 -51 20.5 -95t85.5 -44q45 0 74 26.5t35 75.5q45 -14 89 -27.5t89 -25.5q-20 -106 -94 -166.5t-193 -60.5q-86 0 -142.5 26.5t-89 70.5t-46 99t-13.5 115z" />
<glyph unicode="&#xaa;" horiz-adv-x="653" d="M39 776q0 86 59.5 145.5t186.5 59.5h100v33q0 16 -16.5 33.5t-51.5 17.5q-29 0 -57.5 -10.5t-48.5 -40.5l-154 94q45 78 114 110.5t157 32.5q125 0 198.5 -50t73.5 -177v-453h-215v58q-29 -35 -69 -50.5t-70 -15.5q-109 0 -158 55.5t-49 157.5zM244 791q0 -16 16 -32 t51 -16q31 0 52.5 15.5t21.5 50.5v35h-76q-33 0 -49 -15.5t-16 -37.5z" />
<glyph unicode="&#xab;" horiz-adv-x="1157" d="M94 481l268 424h277l-264 -424l264 -424h-277zM537 481l268 424h276l-264 -424l264 -424h-276z" />
<glyph unicode="&#xac;" d="M39 494v233h922l2 -577h-240v344h-684z" />
<glyph unicode="&#xad;" horiz-adv-x="843" d="M98 418v256h658v-256h-658z" />
<glyph unicode="&#xae;" horiz-adv-x="1036" d="M88 977q0 100 32 184t89 145.5t137 96.5t178 35t178 -35t136.5 -96.5t88 -145.5t31.5 -184q0 -98 -32.5 -183t-90 -146.5t-137.5 -96.5t-174 -35q-100 0 -181 35t-137 96.5t-87 146.5t-31 183zM205 979q0 -76 22.5 -139.5t64.5 -110.5t101.5 -73.5t130.5 -26.5 q74 0 131.5 26.5t97.5 74.5t61.5 111.5t21.5 137.5t-21.5 138.5t-62.5 111.5t-98.5 74.5t-129.5 27.5q-74 0 -133 -27.5t-100 -74.5t-63.5 -111.5t-22.5 -138.5zM362 717v532h179q72 0 115.5 -42t43.5 -122q0 -43 -16 -80.5t-57 -64.5q6 -14 19 -46t27.5 -66.5t28 -65.5 t19.5 -45h-127l-78 203h-39v-203h-115zM477 1024h58q57 0 57 61q0 57 -57 58h-58v-119z" />
<glyph unicode="&#xaf;" horiz-adv-x="921" d="M182 1171v234h598v-234h-598z" />
<glyph unicode="&#xb0;" horiz-adv-x="804" d="M102 1145q0 59 24 112.5t64.5 93.5t96 62.5t116.5 22.5q63 0 117.5 -22.5t95.5 -62.5t65 -93.5t24 -112.5q0 -61 -24 -113.5t-65 -92.5t-95 -62.5t-118 -22.5q-61 0 -116.5 22.5t-96 62.5t-64.5 92t-24 114zM289 1145q0 -47 33.5 -80t80.5 -33q49 0 82 33t33 80 t-32.5 78.5t-82.5 31.5q-47 0 -80.5 -31.5t-33.5 -78.5z" />
<glyph unicode="&#xb1;" d="M33 0v223h934v-223h-934zM37 610v230h344v331h240v-331h342v-230h-342v-321h-240v321h-344z" />
<glyph unicode="&#xb4;" horiz-adv-x="923" d="M319 1167l191 400l246 -99l-277 -374z" />
<glyph unicode="&#xb6;" horiz-adv-x="1050" d="M35 1026q0 74 22.5 145.5t69.5 130t119.5 94.5t175.5 36q143 0 276 -1t281 -1v-197h-90v-1372h-205v1372h-113v-1372h-211v768q-86 8 -148 43t-101 89t-57.5 122.5t-18.5 142.5z" />
<glyph unicode="&#xb7;" horiz-adv-x="544" d="M117 420v321h311v-321h-311z" />
<glyph unicode="&#xb8;" horiz-adv-x="915" d="M205 -393l47 125q47 -23 77.5 -29t59.5 -6q31 0 52.5 17.5t21.5 43.5q0 29 -17.5 42.5t-42.5 13.5q-16 0 -28 -7q-18 12 -37 22.5t-37 23.5l74 231q35 0 68.5 1t68.5 1l-55 -160q55 -6 91 -25.5t58.5 -45t31.5 -55t9 -56.5q0 -76 -53 -130t-170 -54q-55 2 -111.5 10 t-107.5 37z" />
<glyph unicode="&#xba;" horiz-adv-x="649" d="M47 907q2 55 7 111.5t22 91.5q29 66 95.5 103.5t162.5 37.5q98 0 156.5 -36.5t84.5 -94.5q18 -41 24.5 -95t6.5 -118q0 -72 -7 -124t-30 -91q-39 -72 -103.5 -100.5t-146.5 -28.5q-74 0 -125 22.5t-85 61.5q-35 43 -48.5 106.5t-13.5 153.5zM260 903q0 -35 1 -64.5 t11 -52.5q16 -33 54 -32q39 0 53 34q8 18 10 51t2 81q0 35 -2 61.5t-10 44.5q-16 37 -51 37q-39 0 -56 -37q-10 -23 -11 -53.5t-1 -69.5z" />
<glyph unicode="&#xbb;" horiz-adv-x="1157" d="M94 57l264 424l-264 424h277l268 -424l-268 -424h-277zM539 57l264 424l-264 424h274l268 -424l-268 -424h-274z" />
<glyph unicode="&#xbf;" horiz-adv-x="933" d="M111 -31q0 90 22.5 146.5t56.5 107.5q27 39 56.5 76t55.5 77t43 84t17 97v61h287v-94q0 -94 -39 -175t-86 -152q-41 -61 -71.5 -117.5t-30.5 -110.5q0 -53 29.5 -86t83.5 -33q51 0 86.5 39t37.5 134q72 -10 142.5 -17.5t142.5 -15.5q-6 -98 -42 -176t-92 -130.5t-131 -80 t-161 -27.5q-201 0 -304 107.5t-103 285.5zM365 739v273h282v-273h-282z" />
<glyph unicode="&#xc0;" horiz-adv-x="1136" d="M6 0l412 1425h295l411 -1425h-319l-70 291h-338q-18 -72 -37.5 -145.5t-40.5 -145.5h-313zM182 1686l172 204l355 -264l-107 -139zM463 555h205l-39 203l-58 284h-10l-57 -282z" />
<glyph unicode="&#xc1;" horiz-adv-x="1136" d="M6 0l412 1425h295l411 -1425h-319l-70 291h-338q-18 -72 -37.5 -145.5t-40.5 -145.5h-313zM412 1626l354 264l172 -204l-420 -199zM463 555h205l-39 203l-58 284h-10l-57 -282z" />
<glyph unicode="&#xc2;" horiz-adv-x="1136" d="M6 0l412 1425h295l411 -1425h-319l-70 291h-338q-18 -72 -37.5 -145.5t-40.5 -145.5h-313zM186 1591l291 271h180l287 -271l-104 -108l-275 162l-276 -162zM463 555h205l-39 203l-58 284h-10l-57 -282z" />
<glyph unicode="&#xc3;" horiz-adv-x="1136" d="M6 0l412 1425h295l411 -1425h-319l-70 291h-338q-18 -72 -37.5 -145.5t-40.5 -145.5h-313zM166 1569q49 111 113.5 162t140.5 51q37 0 70.5 -14.5t64.5 -30t57.5 -28.5t49.5 -13q33 0 59.5 18.5t66.5 69.5q35 -18 69 -38t69 -40q-53 -117 -110.5 -165t-123.5 -48 q-39 0 -73.5 13.5t-67.5 28.5t-61.5 28.5t-55.5 13.5q-31 0 -62.5 -18.5t-72.5 -71.5zM463 555h205l-39 203l-58 284h-10l-57 -282z" />
<glyph unicode="&#xc4;" horiz-adv-x="1136" d="M6 0l412 1425h295l411 -1425h-319l-70 291h-338q-18 -72 -37.5 -145.5t-40.5 -145.5h-313zM225 1509v269h279v-269h-279zM463 555h205l-39 203l-58 284h-10l-57 -282zM625 1509v269h276v-269h-276z" />
<glyph unicode="&#xc5;" horiz-adv-x="1136" d="M6 0l412 1425h78q-72 23 -116 80t-44 133q0 45 18.5 86t49 72t72.5 48.5t91 17.5t91 -17.5t73 -48.5t48.5 -72t17.5 -86q0 -76 -45 -133t-117 -80h78l411 -1425h-319l-70 291h-338q-18 -72 -37.5 -145.5t-40.5 -145.5h-313zM463 555h205l-39 203l-58 284h-10l-57 -282z M494 1636q0 -29 21.5 -49t51.5 -20q29 0 50.5 20t21.5 49t-21.5 49.5t-50.5 20.5q-31 0 -52 -20.5t-21 -49.5z" />
<glyph unicode="&#xc6;" horiz-adv-x="1775" d="M53 0l633 1425h1010v-274h-535v-295h459v-272h-459v-303h535v-281h-832v307h-352l-125 -307h-334zM621 578h243v571h-8z" />
<glyph unicode="&#xc7;" horiz-adv-x="1052" d="M92 471v508q0 80 24.5 161t79 146.5t141.5 107.5t212 42q98 0 176 -30t133 -79t90 -113.5t49 -134.5l-280 -84q-4 20 -13.5 48t-30 50.5t-51 39t-73.5 16.5q-45 0 -76 -15.5t-49 -39t-26.5 -51t-8.5 -52.5v-528q0 -82 36 -135.5t124 -53.5q61 0 108.5 40t55.5 110 l282 -82q-29 -158 -139.5 -250t-269.5 -102l-21 -64q55 -6 91 -25.5t58.5 -45t32 -55t9.5 -56.5q0 -76 -53.5 -130t-170.5 -54q-55 2 -111 10t-108 37l47 125q47 -23 78 -29t60 -6q31 0 52 17.5t21 43.5q0 29 -17 42.5t-42 13.5q-16 0 -29 -7q-18 12 -36.5 22.5t-36.5 23.5 q10 35 21 70.5t24 70.5q-96 14 -165 58t-113 108.5t-64.5 144.5t-20.5 166z" />
<glyph unicode="&#xc8;" d="M125 0v1425h829v-274h-532v-295h459v-272h-459v-303h532v-281h-829zM164 1686l172 204l354 -264l-106 -139z" />
<glyph unicode="&#xc9;" d="M125 0v1425h829v-274h-532v-295h459v-272h-459v-303h532v-281h-829zM350 1626l355 264l172 -204l-420 -199z" />
<glyph unicode="&#xca;" d="M125 0v1425h829v-274h-532v-295h459v-272h-459v-303h532v-281h-829zM158 1591l291 271h180l286 -271l-104 -108l-274 162l-277 -162z" />
<glyph unicode="&#xcb;" d="M125 0v1425h829v-274h-532v-295h459v-272h-459v-303h532v-281h-829zM182 1491v266h273v-266h-273zM584 1491v266h274v-266h-274z" />
<glyph unicode="&#xcc;" horiz-adv-x="548" d="M-111 1686l172 204l355 -264l-107 -139zM129 0v1425h297v-1425h-297z" />
<glyph unicode="&#xcd;" horiz-adv-x="548" d="M111 1626l354 264l172 -204l-420 -199zM129 0v1425h297v-1425h-297z" />
<glyph unicode="&#xce;" horiz-adv-x="548" d="M-96 1591l291 271h180l287 -271l-105 -108l-274 162l-277 -162zM129 0v1425h297v-1425h-297z" />
<glyph unicode="&#xcf;" horiz-adv-x="548" d="M-61 1491v266h272v-266h-272zM129 0v1425h297v-1425h-297zM340 1491v266h274v-266h-274z" />
<glyph unicode="&#xd0;" horiz-adv-x="1130" d="M33 633v180h92v612h471q143 0 244.5 -53t148.5 -176q29 -72 34 -177.5t5 -234.5q0 -186 -2 -316t-37 -222q-27 -72 -68.5 -119t-97 -74.5t-120 -40t-134.5 -12.5h-444v633h-92zM420 274h125q113 0 150.5 57.5t37.5 157.5v345q0 61 -6 118.5t-25.5 101.5t-57.5 69.5 t-101 25.5h-123v-336h192v-180h-192v-359z" />
<glyph unicode="&#xd1;" horiz-adv-x="1220" d="M121 0v1425h262l233 -426l187 -344l6 2v768h295v-1425h-260l-264 475l-156 301l-6 -2v-774h-297zM213 1565q49 111 113.5 162t140.5 51q37 0 70.5 -14.5t64.5 -30t57.5 -28.5t49.5 -13q33 0 59.5 18.5t67.5 69.5q35 -18 68.5 -38t68.5 -40q-53 -117 -110.5 -165 t-123.5 -48q-39 0 -73.5 13.5t-67.5 28.5t-61.5 28.5t-55.5 13.5q-31 0 -62.5 -18.5t-72.5 -71.5z" />
<glyph unicode="&#xd2;" horiz-adv-x="1095" d="M90 471v508q0 80 24.5 161t80 146.5t142.5 107.5t212 42q117 0 203 -40t141 -104.5t83 -146.5t28 -166v-530q0 -106 -34 -191.5t-94.5 -146t-143.5 -92t-183 -31.5q-123 0 -210 39t-142.5 105.5t-81 154.5t-25.5 184zM168 1686l172 204l354 -264l-106 -139zM385 463 q0 -82 38 -135.5t126 -53.5q63 0 109.5 41t46.5 113v563q0 20 -7.5 47t-26 51.5t-48 42t-74.5 17.5t-76 -15.5t-50.5 -39t-28.5 -51t-9 -52.5v-528z" />
<glyph unicode="&#xd3;" horiz-adv-x="1095" d="M90 471v508q0 80 24.5 161t80 146.5t142.5 107.5t212 42q117 0 203 -40t141 -104.5t83 -146.5t28 -166v-530q0 -106 -34 -191.5t-94.5 -146t-143.5 -92t-183 -31.5q-123 0 -210 39t-142.5 105.5t-81 154.5t-25.5 184zM385 463q0 -82 38 -135.5t126 -53.5q63 0 109.5 41 t46.5 113v563q0 20 -7.5 47t-26 51.5t-48 42t-74.5 17.5t-76 -15.5t-50.5 -39t-28.5 -51t-9 -52.5v-528zM406 1626l354 264l172 -204l-420 -199z" />
<glyph unicode="&#xd4;" horiz-adv-x="1095" d="M90 471v508q0 80 24.5 161t80 146.5t142.5 107.5t212 42q117 0 203 -40t141 -104.5t83 -146.5t28 -166v-530q0 -106 -34 -191.5t-94.5 -146t-143.5 -92t-183 -31.5q-123 0 -210 39t-142.5 105.5t-81 154.5t-25.5 184zM158 1591l291 271h180l286 -271l-104 -108l-274 162 l-277 -162zM385 463q0 -82 38 -135.5t126 -53.5q63 0 109.5 41t46.5 113v563q0 20 -7.5 47t-26 51.5t-48 42t-74.5 17.5t-76 -15.5t-50.5 -39t-28.5 -51t-9 -52.5v-528z" />
<glyph unicode="&#xd5;" horiz-adv-x="1095" d="M90 471v508q0 80 24.5 161t80 146.5t142.5 107.5t212 42q117 0 203 -40t141 -104.5t83 -146.5t28 -166v-530q0 -106 -34 -191.5t-94.5 -146t-143.5 -92t-183 -31.5q-123 0 -210 39t-142.5 105.5t-81 154.5t-25.5 184zM166 1569q49 111 113.5 162t140.5 51 q37 0 70.5 -14.5t64.5 -30t57.5 -28.5t49.5 -13q33 0 59.5 18.5t66.5 69.5q35 -18 69 -38t69 -40q-53 -117 -110.5 -165t-123.5 -48q-39 0 -73.5 13.5t-67.5 28.5t-61.5 28.5t-55.5 13.5q-31 0 -62.5 -18.5t-72.5 -71.5zM385 463q0 -82 38 -135.5t126 -53.5q63 0 109.5 41 t46.5 113v563q0 20 -7.5 47t-26 51.5t-48 42t-74.5 17.5t-76 -15.5t-50.5 -39t-28.5 -51t-9 -52.5v-528z" />
<glyph unicode="&#xd6;" horiz-adv-x="1095" d="M90 471v508q0 80 24.5 161t80 146.5t142.5 107.5t212 42q117 0 203 -40t141 -104.5t83 -146.5t28 -166v-530q0 -106 -34 -191.5t-94.5 -146t-143.5 -92t-183 -31.5q-123 0 -210 39t-142.5 105.5t-81 154.5t-25.5 184zM221 1509v269h279v-269h-279zM385 463 q0 -82 38 -135.5t126 -53.5q63 0 109.5 41t46.5 113v563q0 20 -7.5 47t-26 51.5t-48 42t-74.5 17.5t-76 -15.5t-50.5 -39t-28.5 -51t-9 -52.5v-528zM621 1509v269h276v-269h-276z" />
<glyph unicode="&#xd8;" horiz-adv-x="1095" d="M84 43l80 133q-39 63 -56.5 138t-17.5 157v508q0 80 24.5 161t80 146.5t142.5 107.5t212 42q98 0 174 -29t131 -76l64 107l88 -58l-80 -133q39 -59 58.5 -127.5t19.5 -140.5v-530q0 -106 -34 -191.5t-94.5 -146t-143.5 -92t-183 -31.5q-106 0 -185 28.5t-135 79.5 l-63 -106zM385 547l305 510q-16 35 -49 63.5t-92 28.5q-45 0 -76 -15.5t-50.5 -39t-28.5 -51t-9 -52.5v-444zM397 375q16 -47 53 -74t99 -27q63 0 109.5 41t46.5 113v453z" />
<glyph unicode="&#xd9;" horiz-adv-x="1128" d="M109 471v954h294v-962q0 -82 38 -135.5t126 -53.5q63 0 109.5 44t46.5 116v991h299v-976q0 -106 -34 -191.5t-94 -146t-143 -92t-184 -31.5q-123 0 -210 39t-142 105.5t-80.5 154.5t-25.5 184zM182 1686l172 204l355 -264l-107 -139z" />
<glyph unicode="&#xda;" horiz-adv-x="1128" d="M109 471v954h294v-962q0 -82 38 -135.5t126 -53.5q63 0 109.5 44t46.5 116v991h299v-976q0 -106 -34 -191.5t-94 -146t-143 -92t-184 -31.5q-123 0 -210 39t-142 105.5t-80.5 154.5t-25.5 184zM391 1626l354 264l173 -204l-420 -199z" />
<glyph unicode="&#xdb;" horiz-adv-x="1128" d="M109 471v954h294v-962q0 -82 38 -135.5t126 -53.5q63 0 109.5 44t46.5 116v991h299v-976q0 -106 -34 -191.5t-94 -146t-143 -92t-184 -31.5q-123 0 -210 39t-142 105.5t-80.5 154.5t-25.5 184zM170 1591l291 271h180l287 -271l-105 -108l-274 162l-277 -162z" />
<glyph unicode="&#xdc;" horiz-adv-x="1128" d="M109 471v954h294v-962q0 -82 38 -135.5t126 -53.5q63 0 109.5 44t46.5 116v991h299v-976q0 -106 -34 -191.5t-94 -146t-143 -92t-184 -31.5q-123 0 -210 39t-142 105.5t-80.5 154.5t-25.5 184zM227 1509v269h279v-269h-279zM627 1509v269h276v-269h-276z" />
<glyph unicode="&#xdd;" horiz-adv-x="1044" d="M10 1430h330l94 -291l84 -273h12l88 275l105 284h315l-368 -854v-571h-291v571zM365 1626l354 264l172 -204l-420 -199z" />
<glyph unicode="&#xde;" horiz-adv-x="1062" d="M125 0v1425h295v-249h158q100 0 185 -27t145.5 -82t94 -140t33.5 -202q0 -102 -30.5 -186t-88 -143.5t-139.5 -92.5t-184 -33h-172v-270h-297zM422 547h158q66 0 115.5 41t49.5 141q0 92 -45 132t-122 40h-156v-354z" />
<glyph unicode="&#xdf;" horiz-adv-x="1019" d="M106 0v1057q0 100 23 179t70 134t120.5 85t178.5 30q100 0 172.5 -29t120 -76t70 -111.5t22.5 -133.5q0 -86 -30 -161t-89 -106v-8q61 -25 95 -68.5t50.5 -95t19.5 -103.5t3 -95q0 -98 -13.5 -189.5t-54.5 -162t-117.5 -113.5t-203.5 -43h-24.5t-24.5 2v241 q90 0 117.5 72t27.5 211q0 35 -3 74t-15.5 72.5t-37 56t-67.5 22.5v215q51 0 70.5 35t19.5 90q0 18 -2 44t-12 49.5t-29.5 39t-56.5 15.5t-59.5 -14.5t-34 -38t-14.5 -53t-3 -62.5v-1061h-289z" />
<glyph unicode="&#xe0;" horiz-adv-x="946" d="M66 303q0 63 21.5 119.5t64.5 99.5t107.5 67.5t152.5 24.5h163v60q0 33 -24.5 65.5t-93.5 32.5q-53 0 -94 -17.5t-70 -66.5l-207 131q57 113 154.5 159t224.5 46q86 0 159.5 -16.5t126 -54.5t82 -100t29.5 -157v-696h-287v82l-8 2q-39 -51 -98 -72.5t-107 -21.5 q-150 0 -223 80t-73 233zM205 1464l248 103l198 -389l-157 -84zM344 324q0 -29 23.5 -56.5t85.5 -27.5q49 0 85.5 28.5t36.5 83.5v62h-124q-57 0 -82 -24.5t-25 -65.5z" />
<glyph unicode="&#xe1;" horiz-adv-x="946" d="M66 303q0 63 21.5 119.5t64.5 99.5t107.5 67.5t152.5 24.5h163v60q0 33 -24.5 65.5t-93.5 32.5q-53 0 -94 -17.5t-70 -66.5l-207 131q57 113 154.5 159t224.5 46q86 0 159.5 -16.5t126 -54.5t82 -100t29.5 -157v-696h-287v82l-8 2q-39 -51 -98 -72.5t-107 -21.5 q-150 0 -223 80t-73 233zM344 324q0 -29 23.5 -56.5t85.5 -27.5q49 0 85.5 28.5t36.5 83.5v62h-124q-57 0 -82 -24.5t-25 -65.5zM356 1167l191 400l246 -99l-277 -374z" />
<glyph unicode="&#xe2;" horiz-adv-x="946" d="M66 303q0 63 21.5 119.5t64.5 99.5t107.5 67.5t152.5 24.5h163v60q0 33 -24.5 65.5t-93.5 32.5q-53 0 -94 -17.5t-70 -66.5l-207 131q57 113 154.5 159t224.5 46q86 0 159.5 -16.5t126 -54.5t82 -100t29.5 -157v-696h-287v82l-8 2q-39 -51 -98 -72.5t-107 -21.5 q-150 0 -223 80t-73 233zM111 1159l288 322h187l282 -320l-110 -100l-269 203q-18 -12 -56 -41t-80 -61t-78.5 -59.5t-55.5 -39.5zM344 324q0 -29 23.5 -56.5t85.5 -27.5q49 0 85.5 28.5t36.5 83.5v62h-124q-57 0 -82 -24.5t-25 -65.5z" />
<glyph unicode="&#xe3;" horiz-adv-x="946" d="M66 303q0 63 21.5 119.5t64.5 99.5t107.5 67.5t152.5 24.5h163v60q0 33 -24.5 65.5t-93.5 32.5q-53 0 -94 -17.5t-70 -66.5l-207 131q57 113 154.5 159t224.5 46q86 0 159.5 -16.5t126 -54.5t82 -100t29.5 -157v-696h-287v82l-8 2q-39 -51 -98 -72.5t-107 -21.5 q-150 0 -223 80t-73 233zM102 1221q49 111 113.5 162t140.5 51q37 0 71 -14.5t64.5 -30t57 -28.5t49.5 -13q33 0 59.5 18t67.5 70q35 -18 68.5 -38t68.5 -40q-53 -117 -110.5 -165t-122.5 -48q-39 0 -74 13t-67.5 28.5t-61.5 29t-55 13.5q-31 0 -63 -18.5t-72 -71.5z M344 324q0 -29 23.5 -56.5t85.5 -27.5q49 0 85.5 28.5t36.5 83.5v62h-124q-57 0 -82 -24.5t-25 -65.5z" />
<glyph unicode="&#xe4;" horiz-adv-x="946" d="M66 303q0 63 21.5 119.5t64.5 99.5t107.5 67.5t152.5 24.5h163v60q0 33 -24.5 65.5t-93.5 32.5q-53 0 -94 -17.5t-70 -66.5l-207 131q57 113 154.5 159t224.5 46q86 0 159.5 -16.5t126 -54.5t82 -100t29.5 -157v-696h-287v82l-8 2q-39 -51 -98 -72.5t-107 -21.5 q-150 0 -223 80t-73 233zM158 1143v266h272v-266h-272zM344 324q0 -29 23.5 -56.5t85.5 -27.5q49 0 85.5 28.5t36.5 83.5v62h-124q-57 0 -82 -24.5t-25 -65.5zM559 1143v266h275v-266h-275z" />
<glyph unicode="&#xe5;" horiz-adv-x="946" d="M66 303q0 63 21.5 119.5t64.5 99.5t107.5 67.5t152.5 24.5h163v60q0 33 -24.5 65.5t-93.5 32.5q-53 0 -94 -17.5t-70 -66.5l-207 131q57 113 154.5 159t224.5 46q86 0 159.5 -16.5t126 -54.5t82 -100t29.5 -157v-696h-287v82l-8 2q-39 -51 -98 -72.5t-107 -21.5 q-150 0 -223 80t-73 233zM260 1294q0 45 18.5 86t49 72t72.5 48.5t92 17.5q49 0 91 -17.5t72.5 -48.5t48 -72t17.5 -86q0 -47 -17.5 -87t-49 -70.5t-73.5 -48t-92 -17.5q-47 0 -89 17.5t-72.5 48t-49 70.5t-18.5 87zM344 324q0 -29 23.5 -56.5t85.5 -27.5q49 0 85.5 28.5 t36.5 83.5v62h-124q-57 0 -82 -24.5t-25 -65.5zM418 1292q0 -29 21.5 -49t52.5 -20q29 0 50 20t21 49t-21.5 49.5t-49.5 20.5q-31 0 -52.5 -20.5t-21.5 -49.5z" />
<glyph unicode="&#xe6;" horiz-adv-x="1447" d="M66 303q0 63 21.5 119.5t64.5 99.5t107.5 67.5t152.5 24.5h163v39q0 16 -8 36t-23.5 37t-39 29.5t-55.5 12.5q-53 0 -93.5 -19.5t-62.5 -60.5l-207 131q57 113 154.5 159t224.5 46q82 0 155.5 -15.5t118.5 -68.5q41 47 101.5 66.5t138.5 19.5q123 0 202 -41t124 -109.5 t62 -160.5t17 -197v-102h-516q0 -76 20.5 -120t90.5 -44q43 0 78 19.5t69 70.5l242 -131q-53 -115 -154.5 -168t-224.5 -53q-106 0 -181 29.5t-124 86.5q-49 -47 -100.5 -71.5t-95.5 -34.5t-77.5 -10h-48.5q-150 0 -223 80t-73 233zM344 324q0 -29 23.5 -56.5t85.5 -27.5 q49 0 85.5 28.5t36.5 83.5v62h-124q-57 0 -82 -24.5t-25 -65.5zM868 618h219q0 27 -4 53.5t-16 47t-34.5 33t-57.5 12.5q-31 0 -50.5 -13.5t-31.5 -34t-17.5 -47t-7.5 -51.5z" />
<glyph unicode="&#xe7;" horiz-adv-x="864" d="M59 502q0 111 19.5 207t65.5 166.5t122 110.5t189 40q129 0 225 -59.5t137 -175.5l-242 -117q-23 49 -47 69.5t-59 20.5q-78 0 -99.5 -71.5t-21.5 -190.5q0 -129 23.5 -189.5t97.5 -60.5q37 0 61.5 21.5t47.5 66.5l241 -119q-39 -104 -124 -163.5t-201 -65.5l-23 -66 q55 -6 91 -25.5t58.5 -45t32 -55t9.5 -56.5q0 -76 -53.5 -130t-170.5 -54q-55 2 -111.5 10t-107.5 37l47 125q47 -23 78 -29t59 -6q31 0 52.5 17.5t21.5 43.5q0 29 -17.5 42.5t-41.5 13.5q-16 0 -29 -7q-18 12 -36.5 22.5t-37.5 23.5q10 37 22.5 73.5t24.5 71.5 q-86 14 -144 58t-93 109.5t-50.5 151.5t-15.5 185z" />
<glyph unicode="&#xe8;" horiz-adv-x="950" d="M74 506q0 119 20.5 215t67.5 163.5t125 104.5t194 37q123 0 201 -41t122 -109.5t60.5 -160.5t16.5 -197v-80h-516v-16q0 -35 4 -65.5t16 -54t33.5 -37t56.5 -13.5q43 0 78 19.5t70 70.5l239 -129q-53 -115 -157.5 -169t-227.5 -54q-113 0 -189.5 34.5t-124.5 101.5 t-68.5 162t-20.5 218zM131 1464l248 103l199 -389l-158 -84zM365 618h215q0 27 -4.5 53.5t-15.5 47t-32.5 33t-56.5 12.5q-29 0 -49.5 -13.5t-32.5 -34t-17 -47t-7 -51.5z" />
<glyph unicode="&#xe9;" horiz-adv-x="950" d="M74 506q0 119 20.5 215t67.5 163.5t125 104.5t194 37q123 0 201 -41t122 -109.5t60.5 -160.5t16.5 -197v-80h-516v-16q0 -35 4 -65.5t16 -54t33.5 -37t56.5 -13.5q43 0 78 19.5t70 70.5l239 -129q-53 -115 -157.5 -169t-227.5 -54q-113 0 -189.5 34.5t-124.5 101.5 t-68.5 162t-20.5 218zM338 1167l190 400l246 -99l-276 -374zM365 618h215q0 27 -4.5 53.5t-15.5 47t-32.5 33t-56.5 12.5q-29 0 -49.5 -13.5t-32.5 -34t-17 -47t-7 -51.5z" />
<glyph unicode="&#xea;" horiz-adv-x="950" d="M74 506q0 119 20.5 215t67.5 163.5t125 104.5t194 37q123 0 201 -41t122 -109.5t60.5 -160.5t16.5 -197v-80h-516v-16q0 -35 4 -65.5t16 -54t33.5 -37t56.5 -13.5q43 0 78 19.5t70 70.5l239 -129q-53 -115 -157.5 -169t-227.5 -54q-113 0 -189.5 34.5t-124.5 101.5 t-68.5 162t-20.5 218zM94 1159l289 322h186l283 -320l-111 -100l-268 203q-18 -12 -56 -41t-80 -61t-79 -59.5t-55 -39.5zM365 618h215q0 27 -4.5 53.5t-15.5 47t-32.5 33t-56.5 12.5q-29 0 -49.5 -13.5t-32.5 -34t-17 -47t-7 -51.5z" />
<glyph unicode="&#xeb;" horiz-adv-x="950" d="M74 506q0 119 20.5 215t67.5 163.5t125 104.5t194 37q123 0 201 -41t122 -109.5t60.5 -160.5t16.5 -197v-80h-516v-16q0 -35 4 -65.5t16 -54t33.5 -37t56.5 -13.5q43 0 78 19.5t70 70.5l239 -129q-53 -115 -157.5 -169t-227.5 -54q-113 0 -189.5 34.5t-124.5 101.5 t-68.5 162t-20.5 218zM139 1143v266h273v-266h-273zM365 618h215q0 27 -4.5 53.5t-15.5 47t-32.5 33t-56.5 12.5q-29 0 -49.5 -13.5t-32.5 -34t-17 -47t-7 -51.5zM541 1143v266h274v-266h-274z" />
<glyph unicode="&#xec;" horiz-adv-x="559" d="M-49 1464l248 103l198 -389l-157 -84zM158 0v1014h286v-1014h-286z" />
<glyph unicode="&#xed;" horiz-adv-x="518" d="M117 0v1014h286v-1014h-286zM139 1167l191 400l245 -99l-276 -374z" />
<glyph unicode="&#xee;" horiz-adv-x="675" d="M-41 1159l289 322h186l283 -320l-111 -100l-268 203q-18 -12 -56 -41t-80 -61t-79 -59.5t-55 -39.5zM193 0v1014h286v-1014h-286z" />
<glyph unicode="&#xef;" horiz-adv-x="593" d="M-41 1143v266h272v-266h-272zM154 0v1014h286v-1014h-286zM360 1143v266h275v-266h-275z" />
<glyph unicode="&#xf0;" horiz-adv-x="960" d="M66 475q0 74 10 154t33 139q39 96 121.5 151.5t205.5 55.5q25 0 55.5 -6t60.5 -17.5t55.5 -29t41.5 -37.5q2 0 4 2q-4 72 -12 125t-41 114l-102 -86q-20 23 -41 50.5t-41 50.5l102 82q-45 35 -103.5 53t-133.5 27q6 49 14 100t14 100q152 -10 247 -49t142 -86l125 100 l86 -94l-127 -100q37 -49 58.5 -126t34 -164t15.5 -178t3 -169q0 -72 -6 -145.5t-22.5 -144.5t-44 -133t-68.5 -110q-51 -59 -123 -87.5t-176 -28.5q-102 0 -175 30.5t-118 85.5q-57 72 -75.5 166.5t-18.5 204.5zM354 467q0 -90 23.5 -152.5t87.5 -62.5q59 0 83.5 53 t24.5 184q0 113 -21 166.5t-87 53.5q-25 0 -45.5 -9.5t-34.5 -36t-22.5 -73.5t-8.5 -123z" />
<glyph unicode="&#xf1;" horiz-adv-x="987" d="M68 1221q49 111 113.5 162t140.5 51q37 0 70.5 -14.5t64 -30t57.5 -28.5t49 -13q33 0 59.5 18t67.5 70q35 -18 69 -38l68 -40q-53 -117 -110.5 -165t-122.5 -48q-39 0 -74 13t-67.5 28.5t-61.5 29t-55 13.5q-31 0 -62.5 -18.5t-72.5 -71.5zM104 0v1014h287v-82l8 -2 q35 41 87.5 67.5t105.5 26.5q154 0 223.5 -84t69.5 -227v-713h-287v641q0 59 -29.5 87t-70.5 28q-45 0 -76 -30t-31 -87v-639h-287z" />
<glyph unicode="&#xf2;" horiz-adv-x="940" d="M74 504q2 86 10 173t31 140q43 98 132 154.5t232 56.5q141 0 224 -55t118 -139q29 -66 37 -149t8 -181q0 -109 -11 -188.5t-40 -139.5q-53 -109 -146.5 -149.5t-209.5 -40.5q-104 0 -177 32.5t-120 92.5q-49 66 -68.5 162t-19.5 231zM160 1464l248 103l198 -389l-157 -84 zM358 500q0 -51 3.5 -98.5t17.5 -82.5q25 -70 92 -69q14 0 29.5 3t30 14.5t25.5 33t17 55.5q4 29 7.5 71t3.5 97q0 106 -21 166q-27 74 -88 74q-68 0 -96 -72q-12 -35 -16.5 -81t-4.5 -111z" />
<glyph unicode="&#xf3;" horiz-adv-x="940" d="M74 504q2 86 10 173t31 140q43 98 132 154.5t232 56.5q141 0 224 -55t118 -139q29 -66 37 -149t8 -181q0 -109 -11 -188.5t-40 -139.5q-53 -109 -146.5 -149.5t-209.5 -40.5q-104 0 -177 32.5t-120 92.5q-49 66 -68.5 162t-19.5 231zM334 1167l190 400l246 -99l-276 -374 zM358 500q0 -51 3.5 -98.5t17.5 -82.5q25 -70 92 -69q14 0 29.5 3t30 14.5t25.5 33t17 55.5q4 29 7.5 71t3.5 97q0 106 -21 166q-27 74 -88 74q-68 0 -96 -72q-12 -35 -16.5 -81t-4.5 -111z" />
<glyph unicode="&#xf4;" horiz-adv-x="940" d="M74 504q2 86 10 173t31 140q43 98 132 154.5t232 56.5q141 0 224 -55t118 -139q29 -66 37 -149t8 -181q0 -109 -11 -188.5t-40 -139.5q-53 -109 -146.5 -149.5t-209.5 -40.5q-104 0 -177 32.5t-120 92.5q-49 66 -68.5 162t-19.5 231zM90 1159l289 322h186l283 -320 l-111 -100l-268 203q-18 -12 -56 -41t-80 -61t-79 -59.5t-55 -39.5zM358 500q0 -51 3.5 -98.5t17.5 -82.5q25 -70 92 -69q14 0 29.5 3t30 14.5t25.5 33t17 55.5q4 29 7.5 71t3.5 97q0 106 -21 166q-27 74 -88 74q-68 0 -96 -72q-12 -35 -16.5 -81t-4.5 -111z" />
<glyph unicode="&#xf5;" horiz-adv-x="940" d="M74 504q2 86 10 173t31 140q43 98 132 154.5t232 56.5q141 0 224 -55t118 -139q29 -66 37 -149t8 -181q0 -109 -11 -188.5t-40 -139.5q-53 -109 -146.5 -149.5t-209.5 -40.5q-104 0 -177 32.5t-120 92.5q-49 66 -68.5 162t-19.5 231zM90 1221q49 111 113.5 162t140.5 51 q37 0 71 -14.5t64.5 -30t57 -28.5t49.5 -13q33 0 59.5 18t67.5 70q35 -18 68.5 -38t68.5 -40q-53 -117 -110.5 -165t-123.5 -48q-39 0 -73.5 13t-67.5 28.5t-61.5 29t-55.5 13.5q-31 0 -62.5 -18.5t-72.5 -71.5zM358 500q0 -51 3.5 -98.5t17.5 -82.5q25 -70 92 -69 q14 0 29.5 3t30 14.5t25.5 33t17 55.5q4 29 7.5 71t3.5 97q0 106 -21 166q-27 74 -88 74q-68 0 -96 -72q-12 -35 -16.5 -81t-4.5 -111z" />
<glyph unicode="&#xf6;" horiz-adv-x="940" d="M74 504q2 86 10 173t31 140q43 98 132 154.5t232 56.5q141 0 224 -55t118 -139q29 -66 37 -149t8 -181q0 -109 -11 -188.5t-40 -139.5q-53 -109 -146.5 -149.5t-209.5 -40.5q-104 0 -177 32.5t-120 92.5q-49 66 -68.5 162t-19.5 231zM129 1143v266h272v-266h-272z M358 500q0 -51 3.5 -98.5t17.5 -82.5q25 -70 92 -69q14 0 29.5 3t30 14.5t25.5 33t17 55.5q4 29 7.5 71t3.5 97q0 106 -21 166q-27 74 -88 74q-68 0 -96 -72q-12 -35 -16.5 -81t-4.5 -111zM530 1143v266h275v-266h-275z" />
<glyph unicode="&#xf7;" d="M37 489v228h926v-228h-926zM336 207q0 33 13 62.5t36 51t53.5 35t65.5 13.5t64.5 -13.5t52 -35t36 -51t13.5 -62.5q0 -68 -48.5 -116t-117.5 -48q-70 0 -119 48t-49 116zM336 993q0 68 49 115t119 47t118 -47t48 -115q0 -33 -13.5 -62.5t-36 -51t-52 -35t-64.5 -13.5 t-65.5 13.5t-53.5 35t-36 51.5t-13 62z" />
<glyph unicode="&#xf8;" horiz-adv-x="940" d="M74 504q2 86 10 173t31 140q43 98 132 154.5t232 56.5q74 0 131.5 -16.5t100.5 -44.5l73 112l62 -43l-78 -121q35 -37 53 -81q29 -66 37 -149t8 -181q0 -109 -11 -188.5t-40 -139.5q-53 -109 -146.5 -149.5t-209.5 -40.5q-152 0 -244 69l-61 -94l-60 41l68 107v2 q-49 66 -68.5 162t-19.5 231zM358 457.5q0 -19.5 2 -39.5l191 297q-27 49 -76 49q-68 0 -96 -72q-12 -35 -16.5 -81t-4.5 -111v-42.5zM381 313q25 -63 90 -63q14 0 29.5 3t30 14.5t25.5 33t17 55.5q4 29 7.5 71t3.5 97q0 53 -6 97z" />
<glyph unicode="&#xf9;" horiz-adv-x="987" d="M106 301v713h287v-641q0 -59 30 -87t71 -28q45 0 75.5 29.5t30.5 87.5v639h287v-1014h-287v82l-8 2q-35 -41 -87 -67.5t-106 -26.5q-154 0 -223.5 84t-69.5 227zM188 1464l248 103l199 -389l-158 -84z" />
<glyph unicode="&#xfa;" horiz-adv-x="987" d="M106 301v713h287v-641q0 -59 30 -87t71 -28q45 0 75.5 29.5t30.5 87.5v639h287v-1014h-287v82l-8 2q-35 -41 -87 -67.5t-106 -26.5q-154 0 -223.5 84t-69.5 227zM344 1167l191 400l245 -99l-276 -374z" />
<glyph unicode="&#xfb;" horiz-adv-x="987" d="M106 301v713h287v-641q0 -59 30 -87t71 -28q45 0 75.5 29.5t30.5 87.5v639h287v-1014h-287v82l-8 2q-35 -41 -87 -67.5t-106 -26.5q-154 0 -223.5 84t-69.5 227zM127 1159l289 322h186l283 -320l-111 -100l-268 203q-18 -12 -56 -41t-80 -61t-79 -59.5t-55 -39.5z" />
<glyph unicode="&#xfc;" horiz-adv-x="987" d="M106 301v713h287v-641q0 -59 30 -87t71 -28q45 0 75.5 29.5t30.5 87.5v639h287v-1014h-287v82l-8 2q-35 -41 -87 -67.5t-106 -26.5q-154 0 -223.5 84t-69.5 227zM162 1143v266h272v-266h-272zM563 1143v266h275v-266h-275z" />
<glyph unicode="&#xfd;" horiz-adv-x="905" d="M2 1014h307l70 -328l63 -280h11l65 278l82 330h299l-379 -1192q-39 -123 -118.5 -177.5t-194.5 -54.5h-101v246h60q84 0 115 105l32 112zM324 1167l190 400l246 -99l-277 -374z" />
<glyph unicode="&#xfe;" horiz-adv-x="956" d="M98 -412v1868h287v-514l6 -4q35 45 85 65.5t95 20.5q113 0 176.5 -51t95 -129t40 -170t8.5 -174q0 -92 -10.5 -183.5t-44 -164t-97 -118.5t-170.5 -46q-20 0 -44.5 6t-49 17.5t-46 26.5t-36.5 36l-8 -2v-484h-287zM385 510q0 -41 3 -86t13.5 -82t32 -61.5t58.5 -24.5 t58 23.5t32.5 59.5t14.5 80t3 85q0 55 -3 102t-14.5 80t-32 51.5t-54.5 18.5q-68 0 -89.5 -63.5t-21.5 -182.5z" />
<glyph unicode="&#xff;" horiz-adv-x="905" d="M2 1014h307l70 -328l63 -280h11l65 278l82 330h299l-379 -1192q-39 -123 -118.5 -177.5t-194.5 -54.5h-101v246h60q84 0 115 105l32 112zM104 1143v266h273v-266h-273zM506 1143v266h274v-266h-274z" />
<glyph unicode="&#x131;" horiz-adv-x="518" d="M117 0v1014h286v-1014h-286z" />
<glyph unicode="&#x152;" horiz-adv-x="1523" d="M90 471v508q0 80 24.5 161t80 146.5t142.5 107.5t212 42q29 0 56.5 -3t51.5 -8h816v-274h-533v-295h459v-272h-459v-303h533v-281h-807q-55 -12 -117 -12q-123 0 -210 39t-142.5 105.5t-81 154.5t-25.5 184zM385 463q0 -82 38 -135.5t126 -53.5q53 0 94 29v817 q-18 12 -41.5 20.5t-52.5 8.5q-45 0 -76 -15.5t-50.5 -39t-28.5 -51t-9 -52.5v-528z" />
<glyph unicode="&#x153;" horiz-adv-x="1458" d="M70 504q2 86 12 173t33 140q43 98 137 154.5t227 56.5q86 0 148.5 -21.5t107.5 -58.5q47 39 111.5 58.5t150.5 19.5q123 0 201 -41t122 -109.5t60.5 -160.5t16.5 -197v-80h-516v-16q0 -35 4 -65.5t16 -54t33.5 -37t56.5 -13.5q43 0 78 19.5t70 70.5l239 -129 q-53 -115 -157.5 -169t-227.5 -54q-166 0 -260 78q-53 -47 -123.5 -64.5t-150.5 -17.5q-104 0 -177 32.5t-120 92.5q-49 66 -70.5 162t-21.5 231zM358 500q0 -51 3.5 -98.5t17.5 -82.5q25 -70 92 -69q14 0 29.5 3t30 14.5t25.5 33t17 55.5q4 29 6.5 71t2.5 97q0 53 -4.5 94 t-14.5 72q-27 74 -88 74q-68 0 -96 -72q-12 -35 -16.5 -81t-4.5 -111zM881 618h215q0 27 -4.5 53.5t-15.5 47t-32.5 33t-56.5 12.5q-29 0 -49 -13.5t-32.5 -34t-17.5 -47t-7 -51.5z" />
<glyph unicode="&#x178;" horiz-adv-x="1044" d="M10 1430h330l94 -291l84 -273h12l88 275l105 284h315l-368 -854v-571h-291v571zM190 1509v269h279v-269h-279zM590 1509v269h276v-269h-276z" />
<glyph unicode="&#x192;" d="M18 -139l68 223q45 -20 69.5 -24.5t43.5 -4.5q47 0 72.5 44t37.5 147l47 405h-137l-2 238h174l15 125q8 74 29.5 149.5t64.5 135t110.5 97.5t165.5 38q49 0 103.5 -8.5t101.5 -28.5l-57 -232q-49 20 -76 23.5t-55 3.5q-27 0 -46.5 -15.5t-33 -40t-21.5 -55t-12 -61.5 l-16 -131h167l3 -238h-199l-47 -405q-12 -96 -35 -177t-62.5 -138.5t-99 -89t-145.5 -31.5q-43 0 -106.5 13t-121.5 38z" />
<glyph unicode="&#x2c6;" horiz-adv-x="923" d="M98 1159l289 322h186l283 -320l-111 -100l-268 203q-18 -12 -56 -41t-80 -61t-79 -59.5t-55 -39.5z" />
<glyph unicode="&#x2c7;" horiz-adv-x="923" d="M98 1382l109 99q18 -12 55 -41t79 -60.5t80 -60.5t56 -41l268 203l111 -99l-283 -321h-186z" />
<glyph unicode="&#x2d8;" horiz-adv-x="1042" d="M176 1456h211q0 -23 9.5 -48.5t24.5 -48t37.5 -36.5t51.5 -14q31 0 52.5 14t36.5 36.5t22.5 48.5t7.5 48h213q-4 -51 -23.5 -111.5t-58.5 -112.5t-100.5 -87t-149.5 -35q-92 0 -154.5 35t-101.5 87t-57.5 112.5t-20.5 111.5z" />
<glyph unicode="&#x2d9;" horiz-adv-x="763" d="M266 1143v266h273v-266h-273z" />
<glyph unicode="&#x2da;" horiz-adv-x="946" d="M281 1294q0 45 18 86t49 72t73 48.5t91 17.5t91 -17.5t73 -48.5t48 -72t17 -86q0 -47 -17 -87t-49 -70.5t-74 -48t-91 -17.5q-47 0 -89 17.5t-73 48t-49 70.5t-18 87zM438 1292q0 -29 21.5 -49t52.5 -20q29 0 50.5 20t21.5 49t-21.5 49.5t-50.5 20.5q-31 0 -52.5 -20.5 t-21.5 -49.5z" />
<glyph unicode="&#x2db;" horiz-adv-x="704" d="M297 -223q0 47 22.5 105.5t69.5 129.5h170q-53 -76 -69.5 -127t-16.5 -80q0 -35 21.5 -53t56.5 -18q18 0 48 7t71 23l51 -131q-49 -29 -104.5 -44t-106.5 -15q-92 0 -152.5 56.5t-60.5 146.5z" />
<glyph unicode="&#x2dc;" horiz-adv-x="899" d="M80 1221q49 111 113.5 162t140.5 51q37 0 70.5 -14.5t64.5 -30t57.5 -28.5t48.5 -13q33 0 60 18t67 70q35 -18 69 -38t69 -40q-53 -117 -110.5 -165t-123.5 -48q-39 0 -73.5 13t-67.5 28.5t-61.5 29t-55.5 13.5q-31 0 -62.5 -18.5t-72.5 -71.5z" />
<glyph unicode="&#x2dd;" horiz-adv-x="1007" d="M199 1196l190 399l246 -98l-277 -375zM522 1167l191 400l245 -99l-276 -374z" />
<glyph unicode="&#x3a9;" horiz-adv-x="1099" d="M63 0v270h103q0 4 1 5t1 4q-47 41 -62.5 108.5t-15.5 147.5v444q0 80 24.5 161t80 146.5t142.5 107.5t212 42q117 0 203 -40t141 -104.5t83 -146.5t28 -166v-457q0 -78 -16.5 -142.5t-63.5 -103.5q0 -2 1 -3t1 -3h106v-270h-432v287q43 16 74 55t31 92v557q0 20 -7.5 47 t-26 51.5t-48 42t-74.5 17.5t-76 -15.5t-50.5 -39t-28.5 -51t-9 -52.5v-522q0 -66 26.5 -116t82.5 -66v-287h-431z" />
<glyph unicode="&#x3c0;" horiz-adv-x="987" d="M102 0v1016h781v-1016h-289v793h-207v-793h-285z" />
<glyph unicode="&#x401;" d="M125 0v1425h829v-274h-532v-295h459v-272h-459v-303h532v-281h-829zM199 1509v269h278v-269h-278zM598 1509v269h276v-269h-276z" />
<glyph unicode="&#x402;" horiz-adv-x="1306" d="M10 1157v266h953v-266h-369v-297l4 -2q41 45 114.5 75t143.5 30q104 0 173 -36t110 -99.5t57 -151.5t16 -193q0 -125 -20.5 -224t-74.5 -166.5t-148.5 -99.5t-241.5 -24v234q66 0 102.5 25.5t55 65.5t23.5 88t5 91q0 45 -5 86t-21.5 72t-46 49t-78.5 18 q-57 0 -104.5 -30.5t-65.5 -67.5v-600h-295v1157h-287z" />
<glyph unicode="&#x403;" horiz-adv-x="983" d="M125 0v1425h829v-274h-532v-1151h-297zM334 1626l354 264l172 -204l-420 -199z" />
<glyph unicode="&#x404;" horiz-adv-x="1052" d="M92 463v86v319v82t4 82q8 88 42 162t91.5 127t138.5 84t185 31q98 0 176 -27t135.5 -76t91 -115.5t43.5 -146.5l-284 -76q-10 68 -52 114t-112 46q-43 0 -74 -15.5t-50 -40t-28.5 -54t-9.5 -60.5v-131h313v-270h-313v-113q0 -35 5 -70.5t21.5 -64.5t47.5 -48.5t82 -19.5 q70 0 111.5 43t52.5 119q72 -18 144.5 -36.5t143.5 -39.5q-29 -168 -143.5 -267t-302.5 -99q-215 0 -326.5 102.5t-128.5 288.5q-4 41 -4 84z" />
<glyph unicode="&#x405;" horiz-adv-x="1083" d="M63 231l234 189q55 -78 115.5 -115t138.5 -37q94 0 130 41t36 101q0 41 -19.5 70.5t-53.5 52t-79 39t-98 30.5q-98 31 -168 70t-114 88t-64.5 112.5t-20.5 143.5q0 92 33 169t92.5 133t142.5 87t183 31q162 0 265.5 -50.5t174.5 -148.5l-213 -201q-102 121 -227 121 q-66 0 -108 -35t-42 -92q0 -31 20.5 -55.5t55.5 -45t82 -39t100 -34.5q106 -33 178 -75t115 -96t60.5 -119.5t17.5 -143.5q0 -205 -126 -318.5t-357 -113.5q-90 0 -163 18.5t-131 50t-105.5 75.5t-84.5 97z" />
<glyph unicode="&#x406;" horiz-adv-x="548" d="M129 0v1425h297v-1425h-297z" />
<glyph unicode="&#x407;" horiz-adv-x="548" d="M-74 1509v267h273v-267h-273zM129 0v1425h297v-1425h-297zM328 1509v267h274v-267h-274z" />
<glyph unicode="&#x408;" horiz-adv-x="892" d="M-16 170l194 199q18 -29 41 -48.5t46.5 -32t46 -17.5t38.5 -5q63 0 97 42t34 106v1011h295v-1022q0 -111 -32.5 -188.5t-89 -127.5t-133.5 -73.5t-163 -23.5q-111 0 -206 41t-168 139z" />
<glyph unicode="&#x409;" horiz-adv-x="1671" d="M10 201q80 29 124 70.5t65.5 101t26.5 140.5t5 187v725h777v-534h180q113 0 196.5 -33t138 -90t81 -138t26.5 -175q0 -113 -32.5 -198t-91 -142.5t-141.5 -86t-183 -28.5h-471v1149h-211v-438q0 -156 -14.5 -283t-58.5 -222t-128 -154.5t-221 -80.5zM1006 274h165 q82 0 123 48.5t41 126.5q0 92 -44 128.5t-122 36.5h-163v-340z" />
<glyph unicode="&#x40a;" horiz-adv-x="1632" d="M115 0v1425h297v-540h264v540h297v-540h180q113 0 197 -32t138 -89t80.5 -137t26.5 -174q0 -115 -32.5 -199t-91 -141.5t-141.5 -85t-183 -27.5h-471v608h-264v-608h-297zM971 274h166q82 0 122.5 46.5t40.5 123.5q0 92 -44 128t-121 36h-164v-334z" />
<glyph unicode="&#x40b;" horiz-adv-x="1308" d="M29 1155v270h968v-270h-385v-295l6 -2q47 45 123 76t152 31q84 0 144.5 -26t100.5 -70t58 -105.5t18 -130.5v-633h-296v551q0 63 -27 106t-111 43q-41 0 -88 -24.5t-80 -67.5v-608h-297v1155h-286z" />
<glyph unicode="&#x40c;" horiz-adv-x="1124" d="M125 0v1427h297v-577h74q29 0 58.5 9t55 31.5t48 60.5t36.5 96l97 374h284l-108 -424q-25 -104 -76 -170.5t-117 -89.5q86 -29 134 -94t73 -170l117 -473h-299l-92 385q-31 113 -77 159t-124 46h-84v-590h-297zM393 1626l355 264l172 -204l-420 -199z" />
<glyph unicode="&#x40e;" horiz-adv-x="1034" d="M18 1423h308l116 -395l93 -307h10l84 309q25 100 50.5 197.5t51.5 197.5h287l-305 -997q-12 -41 -24.5 -78t-26.5 -71q-33 -92 -71 -147.5t-84 -86.5t-99.5 -42t-114.5 -13h-115v239h72q43 0 71.5 16.5t57.5 67.5q4 10 10 21.5t10 23.5zM211 1821h211q0 -23 9 -48.5 t24.5 -48t38 -37t51.5 -14.5q31 0 52 14.5t36.5 37t23 48t7.5 48.5h213q-4 -51 -23.5 -111.5t-58.5 -113t-100.5 -87t-149.5 -34.5q-92 0 -154.5 34.5t-101.5 87t-57.5 112.5t-20.5 112z" />
<glyph unicode="&#x40f;" horiz-adv-x="1144" d="M125 0v1425h297v-1144h307v1144h293v-1425h-324v-307h-249v307h-324z" />
<glyph unicode="&#x410;" horiz-adv-x="1136" d="M6 0l412 1425h295l411 -1425h-319l-70 291h-338q-18 -72 -37.5 -145.5t-40.5 -145.5h-313zM463 555h205l-39 203l-58 284h-10l-57 -282z" />
<glyph unicode="&#x411;" horiz-adv-x="1062" d="M106 0v1425h799v-274h-502v-260h181q113 0 196.5 -33t138 -90t81 -138t26.5 -175q0 -115 -31.5 -200t-90 -141.5t-141.5 -85t-183 -28.5h-474zM403 274h166q82 0 122 47.5t40 127.5q0 92 -43 128.5t-121 36.5h-164v-340z" />
<glyph unicode="&#x412;" horiz-adv-x="1110" d="M125 0v1425h461q209 0 317.5 -106.5t108.5 -294.5q0 -80 -39 -159t-129 -115v-11q49 -16 84 -49t57.5 -75t32.5 -89t10 -92q0 -104 -30.5 -185t-86 -136.5t-133.5 -84t-172 -28.5h-481zM422 281h164q88 0 120.5 49t32.5 121t-35.5 114.5t-115.5 42.5h-166v-327zM422 866 h147q82 0 117 41t35 107q0 72 -35 106.5t-119 34.5h-145v-289z" />
<glyph unicode="&#x413;" horiz-adv-x="983" d="M125 0v1425h829v-274h-532v-1151h-297z" />
<glyph unicode="&#x414;" horiz-adv-x="1306" d="M31 252l121 24q43 45 66.5 100.5t35.5 124t16 154.5t11 195l26 575h815v-1155h127v-569h-245v299h-728v-299h-245v551zM463 270h368v879h-270l-16 -365q-4 -68 -7 -141.5t-11.5 -142t-24 -129t-39.5 -101.5z" />
<glyph unicode="&#x415;" d="M125 0v1425h829v-274h-532v-295h459v-272h-459v-303h532v-281h-829z" />
<glyph unicode="&#x416;" horiz-adv-x="1712" d="M31 0l116 473q25 102 71 167t124 93l2 8q-59 27 -109.5 91.5t-72.5 164.5l-107 424h285l94 -374q29 -115 84 -156t115 -41h76v577h297v-577h73q29 0 58.5 9t55.5 31.5t48.5 60.5t36.5 96l96 374h285l-109 -424q-23 -100 -71.5 -164.5t-110.5 -91.5l2 -8q78 -29 124 -93.5 t71 -166.5l116 -473h-299l-92 385q-31 113 -77 159t-123 46h-84v-590h-297v590h-84q-78 0 -125 -46t-76 -159l-92 -385h-301z" />
<glyph unicode="&#x417;" horiz-adv-x="1048" d="M66 338q72 23 141 44t141 44q16 -70 63.5 -112t114.5 -42q39 0 69 15.5t48.5 40t27.5 54.5t9 58q0 33 -6 65t-24.5 56.5t-51.5 38.5t-84 14h-102v248h104q66 0 112 35t46 123q0 20 -7.5 43.5t-22.5 44t-42 33t-63 12.5q-72 0 -118 -41t-63 -106l-268 102 q41 152 155.5 242t301.5 90q201 0 314.5 -102.5t113.5 -288.5q0 -31 -6 -74t-22.5 -86t-49.5 -81t-84 -63v-6q49 -16 82 -50t52.5 -76t28.5 -91t9 -96q0 -117 -37 -199t-99.5 -135t-145 -77.5t-177.5 -24.5q-188 0 -306.5 94t-153.5 254z" />
<glyph unicode="&#x418;" horiz-adv-x="1208" d="M119 0v1425h295v-827h4l407 827h269v-1425h-297v776h-2l-398 -776h-278z" />
<glyph unicode="&#x419;" horiz-adv-x="1208" d="M119 0v1425h295v-827h4l407 827h269v-1425h-297v776h-2l-398 -776h-278zM287 1831h211q0 -23 9 -48.5t24.5 -48t38 -37t51.5 -14.5q31 0 52 14.5t36.5 37t22.5 48t7 48.5h213q-4 -51 -23.5 -111.5t-58.5 -113t-100 -87t-149 -34.5q-92 0 -155 34.5t-101.5 87t-57 113 t-20.5 111.5z" />
<glyph unicode="&#x41a;" horiz-adv-x="1124" d="M125 0v1427h297v-577h74q29 0 58.5 9t55 31.5t48 60.5t36.5 96l97 374h284l-108 -424q-25 -104 -76 -170.5t-117 -89.5q86 -29 134 -94t73 -170l117 -473h-299l-92 385q-31 113 -77 159t-124 46h-84v-590h-297z" />
<glyph unicode="&#x41b;" horiz-adv-x="1187" d="M25 203q80 27 124 68.5t66.5 101t27.5 140.5t5 187v725h803v-1425h-293v1149h-242v-440q0 -156 -14.5 -283t-59.5 -221t-128 -154.5t-220 -81.5z" />
<glyph unicode="&#x41c;" horiz-adv-x="1396" d="M119 0v1425h272l166 -397l141 -356h11l137 358l164 395h278v-1425h-295v672l-8 2l-98 -256l-76 -185h-213l-80 197l-96 246l-8 -2v-674h-295z" />
<glyph unicode="&#x41d;" horiz-adv-x="1161" d="M123 0v1425h297v-569h323v569h293v-1425h-293v586h-323v-586h-297z" />
<glyph unicode="&#x41e;" horiz-adv-x="1095" d="M90 471v508q0 80 24.5 161t80 146.5t142.5 107.5t212 42q117 0 203 -40t141 -104.5t83 -146.5t28 -166v-530q0 -106 -34 -191.5t-94.5 -146t-143.5 -92t-183 -31.5q-123 0 -210 39t-142.5 105.5t-81 154.5t-25.5 184zM385 463q0 -82 38 -135.5t126 -53.5q63 0 109.5 41 t46.5 113v563q0 20 -7.5 47t-26 51.5t-48 42t-74.5 17.5t-76 -15.5t-50.5 -39t-28.5 -51t-9 -52.5v-528z" />
<glyph unicode="&#x41f;" horiz-adv-x="1146" d="M125 0v1425h897v-1425h-293v1147h-307v-1147h-297z" />
<glyph unicode="&#x420;" horiz-adv-x="1062" d="M125 0v1425h453q100 0 185 -26.5t145.5 -81.5t94 -140t33.5 -202q0 -102 -30.5 -186t-88 -143.5t-139.5 -92.5t-184 -33h-172v-520h-297zM422 797h158q66 0 115.5 41t49.5 141q0 92 -45 132t-122 40h-156v-354z" />
<glyph unicode="&#x421;" horiz-adv-x="1052" d="M92 471v508q0 80 24.5 161t79 146.5t141.5 107.5t212 42q98 0 176 -30t133 -79t90 -113.5t49 -134.5l-280 -84q-4 20 -13.5 48t-30 50.5t-51 39t-73.5 16.5q-45 0 -76 -15.5t-49 -39t-26.5 -51t-8.5 -52.5v-528q0 -82 36 -135.5t124 -53.5q61 0 108.5 40t55.5 110 l282 -82q-31 -166 -151.5 -260t-294.5 -94q-123 0 -210 39t-141.5 105.5t-80 154.5t-25.5 184z" />
<glyph unicode="&#x422;" horiz-adv-x="937" d="M12 1155v270h906v-270h-306v-1155h-295v1155h-305z" />
<glyph unicode="&#x423;" horiz-adv-x="1034" d="M18 1423h308l116 -395l93 -307h10l84 309q25 100 50.5 197.5t51.5 197.5h287l-305 -997q-12 -41 -24.5 -78t-26.5 -71q-33 -92 -71 -147.5t-84 -86.5t-99.5 -42t-114.5 -13h-115v239h72q43 0 71.5 16.5t57.5 67.5q4 10 10 21.5t10 23.5z" />
<glyph unicode="&#x424;" horiz-adv-x="1429" d="M90 733q0 113 19.5 216.5t73 186.5t146.5 138t242 72v79h285v-79q141 -8 234.5 -61.5t147.5 -136.5t76.5 -187.5t22.5 -215.5q0 -117 -17 -224t-69.5 -191t-146.5 -138.5t-248 -66.5v-125h-285v125q-154 12 -249 65.5t-146 135.5t-68.5 187t-17.5 220zM379 741 q0 -61 3 -123.5t21.5 -112.5t57.5 -83t110 -39v700q-59 -6 -96 -34.5t-58.5 -73.5t-29.5 -105.5t-8 -128.5zM856 383q70 6 110 38t59 83t23.5 113.5t4.5 130.5t-8.5 127t-31 103t-60.5 71.5t-97 33.5v-700z" />
<glyph unicode="&#x425;" horiz-adv-x="1105" d="M2 0l389 735l-364 690h342q45 -98 89 -196.5t89 -194.5l184 391h342l-368 -690l393 -735h-342l-205 434l-209 -434h-340z" />
<glyph unicode="&#x426;" horiz-adv-x="1210" d="M123 0v1425h297v-1153h321v1153h295v-1155h150v-571h-246v301h-817z" />
<glyph unicode="&#x427;" horiz-adv-x="1118" d="M96 903v522h293v-411q0 -131 35 -181.5t121 -50.5q35 0 80 10.5t75 26.5v606h295v-1425h-295v565q-51 -23 -111.5 -32t-117.5 -9q-80 0 -148.5 20.5t-118.5 65.5t-79 117t-29 176z" />
<glyph unicode="&#x428;" horiz-adv-x="1646" d="M125 0v1425h297v-1155h254v1155h297v-1155h256v1155h295v-1425h-1399z" />
<glyph unicode="&#x429;" horiz-adv-x="1708" d="M123 0v1425h297v-1153h256v1153h297v-1153h256v1153h295v-1155h149v-571h-246v301h-1304z" />
<glyph unicode="&#x42a;" horiz-adv-x="1345" d="M25 1151v274h665v-534h182q113 0 197 -33t137.5 -90t80 -138t26.5 -175q0 -113 -32 -198t-90 -142.5t-141 -86t-184 -28.5h-473v1151h-368zM690 274h166q82 0 122 48.5t40 126.5q0 92 -43 128.5t-121 36.5h-164v-340z" />
<glyph unicode="&#x42b;" horiz-adv-x="1576" d="M123 0v1425h297v-534h182q113 0 197 -33t137 -90t79.5 -138t26.5 -175q0 -115 -31.5 -200t-90 -141.5t-141.5 -85t-183 -28.5h-473zM420 274h166q82 0 122 47.5t40 127.5q0 92 -43 128.5t-121 36.5h-164v-340zM1155 0v1425h297v-1425h-297z" />
<glyph unicode="&#x42c;" horiz-adv-x="1075" d="M125 0v1425h297v-534h180q113 0 197 -33t138 -90t80.5 -138t26.5 -175q0 -113 -32.5 -198t-91 -142.5t-141.5 -86t-183 -28.5h-471zM420 274h166q82 0 123 48.5t41 126.5q0 92 -44 128.5t-122 36.5h-164v-340z" />
<glyph unicode="&#x42d;" horiz-adv-x="1062" d="M63 342l283 82q8 -70 55.5 -113t108.5 -43q88 0 124 56.5t36 138.5v129h-316v266h316v133q0 25 -3 53.5t-18.5 53t-46.5 41t-84 16.5q-43 0 -74.5 -17.5t-53 -42t-34 -52t-14.5 -48.5l-276 84q14 70 49 134.5t92 113.5t135 79t176 30q131 0 218 -42t138.5 -107.5 t72 -146.5t20.5 -161v-508q0 -96 -26 -184t-80 -154.5t-141 -105.5t-210 -39q-174 0 -295 94t-152 260z" />
<glyph unicode="&#x42e;" horiz-adv-x="1501" d="M117 0v1425h297v-569h118v121q0 100 28 185t83 145.5t137 94.5t191 34q225 0 331.5 -123t106.5 -336v-531q0 -219 -114.5 -338.5t-325.5 -119.5q-113 0 -195 33.5t-136 94t-80 144.5t-26 186v140h-118v-586h-297zM821 432q0 -72 35 -118t111 -46q74 0 111.5 44t37.5 120 v561q0 72 -36.5 116t-110.5 44q-76 0 -112 -46t-36 -114v-561z" />
<glyph unicode="&#x42f;" horiz-adv-x="1136" d="M61 0l93 426q16 70 52 129t103 86q-106 43 -154.5 137t-48.5 217q0 104 34 184.5t92.5 135.5t138.5 82.5t170 27.5h477v-1425h-297v578h-88q-70 0 -114 -49.5t-73 -161.5l-79 -367h-306zM403 987q0 -45 14.5 -72.5t39 -43t56.5 -20.5t69 -5h139v305h-150 q-168 0 -168 -164z" />
<glyph unicode="&#x430;" horiz-adv-x="946" d="M66 303q0 63 21.5 119.5t64.5 99.5t107.5 67.5t152.5 24.5h163v60q0 33 -24.5 65.5t-93.5 32.5q-53 0 -94 -17.5t-70 -66.5l-207 131q57 113 154.5 159t224.5 46q86 0 159.5 -16.5t126 -54.5t82 -100t29.5 -157v-696h-287v82l-8 2q-39 -51 -98 -72.5t-107 -21.5 q-150 0 -223 80t-73 233zM344 324q0 -29 23.5 -56.5t85.5 -27.5q49 0 85.5 28.5t36.5 83.5v62h-124q-57 0 -82 -24.5t-25 -65.5z" />
<glyph unicode="&#x431;" horiz-adv-x="933" d="M68 561q0 98 3 178t11 150q10 92 30.5 161.5t52.5 124t78 95.5t109 73q43 20 80 36t79 30t94 32.5t126 49.5q23 -53 45.5 -106.5t44.5 -106.5q-92 -41 -160.5 -67.5t-119.5 -49.5q-47 -20 -80 -40.5t-55.5 -49.5t-35 -66.5t-18.5 -91.5l6 -4q39 35 87 46.5t79 11.5 q88 0 147.5 -29t100.5 -76q53 -66 73.5 -158t20.5 -198q0 -162 -30.5 -263.5t-92.5 -160.5q-53 -51 -125.5 -73.5t-168.5 -22.5q-109 0 -178.5 27.5t-110.5 78.5q-59 72 -75.5 197t-16.5 272zM356 473q0 -47 4.5 -88t16.5 -70t33.5 -46t58.5 -17q68 0 88 53q16 31 19.5 75 t3.5 89q0 125 -21 178q-22 58 -90 58q-27 0 -49.5 -12.5t-40.5 -47.5q-10 -18 -16.5 -55t-6.5 -117z" />
<glyph unicode="&#x432;" horiz-adv-x="935" d="M96 0v1014h418q176 0 261 -75t85 -210q0 -61 -26.5 -119.5t-96.5 -83.5q72 -29 104.5 -89t32.5 -120q0 -145 -94 -231t-245 -86h-439zM375 242h119q37 0 66.5 24.5t29.5 71.5q0 43 -27.5 64.5t-68.5 21.5h-119v-182zM375 623h102q37 0 66.5 19t29.5 60q0 47 -31.5 63.5 t-64.5 16.5h-102v-159z" />
<glyph unicode="&#x433;" horiz-adv-x="829" d="M96 0v1014h719v-250h-440v-764h-279z" />
<glyph unicode="&#x434;" horiz-adv-x="1118" d="M35 240l110 18q25 27 42.5 52.5t28.5 57t18.5 73.5t11.5 100l26 473h691v-760h114v-526h-237v272h-568v-272h-237v512zM436 252h244v512h-170q-6 -186 -20.5 -316.5t-53.5 -195.5z" />
<glyph unicode="&#x435;" horiz-adv-x="950" d="M74 506q0 119 20.5 215t67.5 163.5t125 104.5t194 37q123 0 201 -41t122 -109.5t60.5 -160.5t16.5 -197v-80h-516v-16q0 -35 4 -65.5t16 -54t33.5 -37t56.5 -13.5q43 0 78 19.5t70 70.5l239 -129q-53 -115 -157.5 -169t-227.5 -54q-113 0 -189.5 34.5t-124.5 101.5 t-68.5 162t-20.5 218zM365 618h215q0 27 -4.5 53.5t-15.5 47t-32.5 33t-56.5 12.5q-29 0 -49.5 -13.5t-32.5 -34t-17 -47t-7 -51.5z" />
<glyph unicode="&#x436;" horiz-adv-x="1456" d="M37 0l84 326q18 72 53 124t96 72v8q-51 18 -87 67.5t-52 119.5l-76 295h275l59 -240q12 -49 28.5 -77.5t36 -44t41 -19.5t42.5 -4h49v387h284v-387h50q20 0 41.5 4t41 19.5t37 44t29.5 77.5l59 240h275l-76 -295q-16 -70 -53 -119t-88 -68v-8q59 -23 96 -74t53 -122 l86 -326h-288l-54 240q-12 49 -27.5 79.5t-34 48t-41 22.5t-48.5 5h-58v-395h-284v395h-58q-29 0 -50 -5t-39.5 -22.5t-33 -48t-26.5 -79.5l-55 -240h-287z" />
<glyph unicode="&#x437;" horiz-adv-x="866" d="M37 205l217 114q16 -39 63.5 -62.5t94.5 -23.5q49 0 74.5 27t25.5 62q0 55 -30.5 76.5t-80.5 21.5h-104v196h117q47 0 69.5 25t22.5 66q0 35 -26.5 54t-73.5 19q-35 0 -78 -24.5t-68 -53.5l-192 121q47 96 141 149.5t221 53.5q174 0 268.5 -74.5t94.5 -222.5 q0 -47 -27 -108.5t-102 -96.5l-2 -6q78 -29 107.5 -85t29.5 -128q0 -152 -104.5 -233.5t-276.5 -81.5q-154 0 -243 55t-138 160z" />
<glyph unicode="&#x438;" horiz-adv-x="1028" d="M94 0v1014h277v-537h4l309 537h252v-1014h-277v489h-6l-301 -489h-258z" />
<glyph unicode="&#x439;" horiz-adv-x="1028" d="M94 0v1014h277v-537h4l309 537h252v-1014h-277v489h-6l-301 -489h-258zM184 1448h211q0 -23 9.5 -48.5t24.5 -48t37.5 -37t51.5 -14.5q31 0 52.5 14.5t37 37t22.5 48t7 48.5h213q-4 -51 -23.5 -110.5t-58.5 -110.5t-100.5 -85t-149.5 -34q-92 0 -154.5 34t-101.5 85 t-57.5 110.5t-20.5 110.5z" />
<glyph unicode="&#x43a;" horiz-adv-x="968" d="M102 0v1010h285v-385h45q20 0 42 4t41.5 19.5t36.5 45t30 78.5l59 240h274l-75 -295q-18 -74 -58.5 -124t-95.5 -67q68 -16 105.5 -70.5t56.5 -129.5l86 -326h-289l-53 240q-12 49 -27.5 79.5t-34 48t-41 22.5t-49.5 5h-53v-395h-285z" />
<glyph unicode="&#x43b;" d="M23 188q63 18 99 44t54.5 67t23.5 104.5t5 157.5v453h696v-1014h-283v762h-157v-215q0 -141 -19.5 -244.5t-64.5 -173.5t-119 -106.5t-182 -45.5z" />
<glyph unicode="&#x43c;" horiz-adv-x="1179" d="M94 0v1014h252l141 -293l105 -213h4l100 215l142 291h258v-1014h-281v428h-4l-55 -123l-64 -143h-192l-68 143l-55 123h-4v-428h-279z" />
<glyph unicode="&#x43d;" horiz-adv-x="976" d="M96 0v1014h279v-393h229v393h279v-1014h-279v403h-229v-403h-279z" />
<glyph unicode="&#x43e;" horiz-adv-x="940" d="M74 504q2 86 10 173t31 140q43 98 132 154.5t232 56.5q141 0 224 -55t118 -139q29 -66 37 -149t8 -181q0 -109 -11 -188.5t-40 -139.5q-53 -109 -146.5 -149.5t-209.5 -40.5q-104 0 -177 32.5t-120 92.5q-49 66 -68.5 162t-19.5 231zM358 500q0 -51 3.5 -98.5t17.5 -82.5 q25 -70 92 -69q14 0 29.5 3t30 14.5t25.5 33t17 55.5q4 29 7.5 71t3.5 97q0 106 -21 166q-27 74 -88 74q-68 0 -96 -72q-12 -35 -16.5 -81t-4.5 -111z" />
<glyph unicode="&#x43f;" horiz-adv-x="987" d="M102 0v1016h781v-1016h-289v793h-207v-793h-285z" />
<glyph unicode="&#x440;" horiz-adv-x="956" d="M98 -412v1426h287v-72l6 -4q35 45 85 65.5t95 20.5q113 0 176.5 -51t95 -129t40 -170t8.5 -174q0 -92 -10.5 -183.5t-44 -164t-97 -118.5t-170.5 -46q-20 0 -44.5 6t-49 17.5t-46 26.5t-36.5 36l-8 -2v-484h-287zM385 510q0 -41 3 -86t13.5 -82t32 -61.5t58.5 -24.5 t58 23.5t32.5 59.5t14.5 80t3 85q0 55 -3 102t-14.5 80t-32 51.5t-54.5 18.5q-68 0 -89.5 -63.5t-21.5 -182.5z" />
<glyph unicode="&#x441;" horiz-adv-x="864" d="M59 502q0 111 19.5 207t65.5 166.5t122 110.5t189 40q129 0 225 -59.5t137 -175.5l-242 -117q-23 49 -47 69.5t-59 20.5q-78 0 -99.5 -71.5t-21.5 -190.5q0 -129 23.5 -189.5t97.5 -60.5q37 0 61.5 21.5t47.5 66.5l241 -119q-41 -113 -136 -172t-224 -59q-115 0 -192 38 t-123 106.5t-65.5 162.5t-19.5 205z" />
<glyph unicode="&#x442;" horiz-adv-x="808" d="M10 782v232h781v-232h-252v-782h-279v782h-250z" />
<glyph unicode="&#x443;" horiz-adv-x="905" d="M2 1014h307l70 -328l63 -280h11l65 278l82 330h299l-379 -1192q-39 -123 -118.5 -177.5t-194.5 -54.5h-101v246h60q84 0 115 105l32 112z" />
<glyph unicode="&#x444;" horiz-adv-x="1296" d="M82 475q0 90 10 172t35 141q41 98 144.5 163t236.5 71v434h274v-434q127 -4 210 -47t132.5 -112.5t69.5 -162t20 -194.5q0 -141 -33.5 -238.5t-92 -157t-136.5 -87t-168 -33.5v-383h-276v381q-109 6 -188.5 36.5t-133 89t-79 147.5t-25.5 214zM369 492 q0 -129 30.5 -185.5t108.5 -60.5v514q-35 -6 -61.5 -22.5t-44 -47.5t-25.5 -80t-8 -118zM782 246q86 6 114 71.5t28 176.5q0 80 -8.5 129t-26 78.5t-44 42t-63.5 16.5v-514z" />
<glyph unicode="&#x445;" horiz-adv-x="960" d="M6 0l313 516l-301 498h332l127 -275h2l127 275h328l-305 -498l319 -516h-332q-35 72 -69.5 145.5t-69.5 145.5l-141 -291h-330z" />
<glyph unicode="&#x446;" horiz-adv-x="1056" d="M104 0v1014h283v-758h225v758h285v-758h131v-526h-237v270h-687z" />
<glyph unicode="&#x447;" horiz-adv-x="931" d="M68 623v391h286v-266q0 -70 16.5 -109t82.5 -39q25 0 53.5 7t54.5 18v389h283v-1014h-283v393q-49 -16 -104.5 -26.5t-110.5 -10.5q-59 0 -110.5 15.5t-88 48.5t-58 83t-21.5 120z" />
<glyph unicode="&#x448;" horiz-adv-x="1445" d="M104 0v1014h281v-756h199v756h282v-756h199v756h278v-1014h-1239z" />
<glyph unicode="&#x449;" horiz-adv-x="1505" d="M104 0v1014h281v-758h199v758h282v-758h199v758h281v-758h131v-526h-240v270h-1133z" />
<glyph unicode="&#x44a;" horiz-adv-x="1130" d="M23 772v242h585v-338h125q102 0 173 -25.5t115 -69.5t63.5 -104.5t19.5 -128.5q0 -82 -28.5 -146.5t-78 -109.5t-116 -68.5t-140.5 -23.5h-413v772h-305zM606 233h117q55 0 83 29t28 76q0 41 -24 73.5t-83 32.5h-121v-211z" />
<glyph unicode="&#x44b;" horiz-adv-x="1337" d="M98 0v1014h281v-338h125q102 0 173 -25.5t115 -69.5t63 -104.5t19 -128.5q0 -82 -28.5 -146.5t-77.5 -109.5t-115.5 -68.5t-140.5 -23.5h-414zM377 233h117q55 0 82.5 29t27.5 76q0 41 -23.5 73.5t-82.5 32.5h-121v-211zM961 0v1014h278v-1014h-278z" />
<glyph unicode="&#x44c;" horiz-adv-x="907" d="M90 0v1014h281v-338h125q102 0 172.5 -25.5t114.5 -69.5t63.5 -104.5t19.5 -128.5q0 -82 -28.5 -146.5t-77.5 -109.5t-115.5 -68.5t-140.5 -23.5h-414zM369 233h116q55 0 83 29t28 76q0 41 -23.5 73.5t-83.5 32.5h-120v-211z" />
<glyph unicode="&#x44d;" horiz-adv-x="874" d="M45 229l231 107q16 -47 47 -65.5t64 -18.5q63 0 91 45t32 111h-217v206h217q-6 70 -30.5 111t-90.5 41q-31 0 -61.5 -21.5t-51.5 -70.5q-55 27 -109 53.5t-110 54.5q47 117 140.5 179.5t216.5 62.5q111 0 185.5 -33t120.5 -98.5t66.5 -162.5t20.5 -226q0 -117 -22.5 -212 t-71.5 -163t-129 -103.5t-195 -35.5q-129 0 -218 62.5t-126 176.5z" />
<glyph unicode="&#x44e;" horiz-adv-x="1329" d="M92 0v1014h279v-393h98q4 57 13.5 108t25.5 86q41 98 134 154.5t224 56.5q137 0 219 -55.5t117 -139.5q27 -66 37 -147.5t10 -179.5q0 -109 -12 -188.5t-41 -139.5q-53 -109 -143 -149.5t-207 -40.5q-104 0 -175 32.5t-116 92.5q-41 51 -61.5 122.5t-28.5 169.5h-94v-403 h-279zM748 500q0 -51 3 -96.5t17 -79.5q25 -70 90 -70q14 0 29.5 3t29 14.5t24.5 33t17 55.5q4 29 6.5 69t2.5 93t-4.5 92t-14.5 70q-27 74 -86 74q-66 0 -94 -72q-12 -35 -16 -79t-4 -107z" />
<glyph unicode="&#x44f;" horiz-adv-x="958" d="M49 0l72 279q14 53 40.5 94t74.5 65q-86 33 -121 98.5t-37 143.5q0 160 97 247t261 87h428v-1014h-286v379h-56q-45 0 -80.5 -31t-56.5 -121l-51 -227h-285zM356 676q0 -47 33 -63.5t80 -16.5h109v176h-115q-43 0 -75 -21.5t-32 -74.5z" />
<glyph unicode="&#x451;" horiz-adv-x="950" d="M74 506q0 119 20.5 215t67.5 163.5t125 104.5t194 37q123 0 201 -41t122 -109.5t60.5 -160.5t16.5 -197v-80h-516v-16q0 -35 4 -65.5t16 -54t33.5 -37t56.5 -13.5q43 0 78 19.5t70 70.5l239 -129q-53 -115 -157.5 -169t-227.5 -54q-113 0 -189.5 34.5t-124.5 101.5 t-68.5 162t-20.5 218zM141 1157v266h273v-266h-273zM365 618h215q0 27 -4.5 53.5t-15.5 47t-32.5 33t-56.5 12.5q-29 0 -49.5 -13.5t-32.5 -34t-17 -47t-7 -51.5zM543 1157v266h274v-266h-274z" />
<glyph unicode="&#x452;" horiz-adv-x="1050" d="M2 1151v166h125v170h287v-170h317v-166h-315v-238h4q41 47 103.5 73t115.5 26q94 0 156.5 -31t101.5 -94.5t55.5 -159.5t16.5 -227q0 -268 -91.5 -394t-302.5 -133h-59v234q51 2 83 20.5t48.5 55t22.5 95t6 140.5q0 43 -4 84t-17.5 74t-38 53.5t-65.5 20.5 q-72 0 -103.5 -62.5t-31.5 -171.5q0 -129 -1 -258t-1 -258h-287v1151h-125z" />
<glyph unicode="&#x453;" horiz-adv-x="829" d="M80 0v1014h719v-250h-443v-764h-276zM303 1167l189 400l247 -99l-278 -374z" />
<glyph unicode="&#x454;" horiz-adv-x="868" d="M61 504q0 522 420 522q127 0 216 -57.5t132 -167.5l-223 -115q-25 43 -57.5 61.5t-61.5 18.5q-53 0 -84.5 -30.5t-42.5 -121.5h222v-206h-224q10 -86 40 -121t87 -35q31 0 62 18.5t55 65.5l234 -121q-47 -104 -138.5 -164.5t-214.5 -60.5q-121 0 -201.5 36.5t-130 103.5 t-70 162t-20.5 212z" />
<glyph unicode="&#x455;" horiz-adv-x="905" d="M51 172l199 168q39 -57 87 -79.5t107 -22.5q57 0 88 24.5t31 52.5q0 35 -22.5 52.5t-75.5 27.5q-68 12 -137.5 31.5t-125 54.5t-91 89.5t-35.5 138.5q0 74 30.5 132t83 99t121 62.5t146.5 21.5q137 0 226 -41t155 -113l-172 -180q-39 45 -85 65.5t-112 20.5 q-59 0 -81.5 -20.5t-22.5 -40.5q0 -18 12 -30.5t32.5 -21t44 -14.5t48.5 -10q70 -14 134 -34.5t113.5 -57.5t78 -93.5t28.5 -140.5q0 -145 -107.5 -234t-295.5 -89q-139 0 -234.5 42t-167.5 140z" />
<glyph unicode="&#x456;" horiz-adv-x="518" d="M117 0v1014h286v-1014h-286zM117 1165v260h286v-260h-286z" />
<glyph unicode="&#x457;" horiz-adv-x="518" d="M-76 1143v266h273v-266h-273zM117 0v1014h286v-1014h-286zM326 1143v266h274v-266h-274z" />
<glyph unicode="&#x458;" horiz-adv-x="524" d="M-23 -147h52q57 0 74.5 40.5t17.5 92.5v1030h287v-1106q0 -156 -97.5 -236t-261.5 -80h-72v259zM121 1165v260h287v-260h-287z" />
<glyph unicode="&#x459;" horiz-adv-x="1406" d="M20 188q45 14 76 31t52.5 40.5t33 56t15.5 77.5q6 63 6 152v469h674v-338h124q102 0 174 -25.5t116 -69.5t63.5 -104.5t19.5 -128.5q0 -96 -29.5 -161.5t-83 -107.5t-130 -60.5t-168.5 -18.5h-369v762h-135v-215q0 -35 -1 -69t-3 -66q-10 -211 -104.5 -316.5 t-276.5 -118.5zM877 250h106q47 0 77 23.5t30 64.5t-26 66.5t-83 25.5h-104v-180z" />
<glyph unicode="&#x45a;" horiz-adv-x="1361" d="M88 0v1014h279v-342h182v342h278v-342h125q104 0 175 -25.5t115 -68.5t63.5 -102.5t19.5 -127.5q0 -160 -97.5 -254t-277.5 -94h-401v440h-182v-440h-279zM827 236h117q55 0 83 26.5t28 73.5q0 104 -113 104h-115v-204z" />
<glyph unicode="&#x45b;" horiz-adv-x="1017" d="M8 1151v166h127v170h287v-170h305v-166h-305v-225l10 -2q35 35 95.5 62.5t113.5 27.5q141 0 207.5 -87t66.5 -231v-696h-286v629q0 59 -27 86.5t-70 27.5q-45 0 -77.5 -33.5t-32.5 -93.5v-616h-287v1151h-127z" />
<glyph unicode="&#x45c;" horiz-adv-x="968" d="M102 0v1010h285v-385h45q20 0 42 4t41.5 19.5t36.5 45t30 78.5l59 240h274l-75 -295q-18 -74 -58.5 -124t-95.5 -67q68 -16 105.5 -70.5t56.5 -129.5l86 -326h-289l-53 240q-12 49 -27.5 79.5t-34 48t-41 22.5t-49.5 5h-53v-395h-285zM317 1167l191 400l246 -99 l-277 -374z" />
<glyph unicode="&#x45e;" horiz-adv-x="905" d="M2 1014h307l70 -328l63 -280h11l65 278l82 330h299l-379 -1192q-39 -123 -118.5 -177.5t-194.5 -54.5h-101v246h60q84 0 115 105l32 112zM125 1456h211q0 -23 9 -48.5t24.5 -48t38 -36.5t51.5 -14q31 0 52 14t36.5 36.5t23 48.5t7.5 48h213q-4 -51 -23.5 -111.5 t-58.5 -112.5t-100.5 -87t-149.5 -35q-92 0 -154.5 35t-101.5 87t-57.5 112.5t-20.5 111.5z" />
<glyph unicode="&#x45f;" horiz-adv-x="983" d="M102 0v1014h279v-758h227v758h279v-1014h-277v-287h-237v287h-271z" />
<glyph unicode="&#x490;" horiz-adv-x="983" d="M125 0v1425h594v244h235v-518h-532v-1151h-297z" />
<glyph unicode="&#x491;" horiz-adv-x="829" d="M96 0v1014h496v225h223v-475h-434v-764h-285z" />
<glyph unicode="&#x4d9;" horiz-adv-x="950" d="M74 498v80h516v16q0 35 -4 65.5t-16.5 54t-34 37t-56.5 13.5q-43 0 -77.5 -19.5t-69.5 -70.5l-240 129q53 115 160.5 169t230.5 54q113 0 190 -35t123 -101.5t65.5 -161.5t19.5 -218q0 -121 -20.5 -217t-68 -164t-125 -103.5t-194.5 -35.5q-123 0 -200.5 41t-122 109.5 t-60.5 160.5t-16 197zM375 397q0 -27 4 -53.5t15.5 -47t33 -32.5t55.5 -12q29 0 48.5 13.5t31.5 33.5t18.5 47t8.5 51h-215z" />
<glyph unicode="&#x2000;" horiz-adv-x="945" />
<glyph unicode="&#x2001;" horiz-adv-x="1890" />
<glyph unicode="&#x2002;" horiz-adv-x="945" />
<glyph unicode="&#x2003;" horiz-adv-x="1890" />
<glyph unicode="&#x2004;" horiz-adv-x="630" />
<glyph unicode="&#x2005;" horiz-adv-x="472" />
<glyph unicode="&#x2006;" horiz-adv-x="315" />
<glyph unicode="&#x2007;" horiz-adv-x="315" />
<glyph unicode="&#x2008;" horiz-adv-x="236" />
<glyph unicode="&#x2009;" horiz-adv-x="378" />
<glyph unicode="&#x200a;" horiz-adv-x="105" />
<glyph unicode="&#x2010;" horiz-adv-x="843" d="M98 418v256h658v-256h-658z" />
<glyph unicode="&#x2011;" horiz-adv-x="843" d="M98 418v256h658v-256h-658z" />
<glyph unicode="&#x2012;" horiz-adv-x="843" d="M98 418v256h658v-256h-658z" />
<glyph unicode="&#x2013;" horiz-adv-x="1024" d="M41 451v237h936v-237h-936z" />
<glyph unicode="&#x2014;" horiz-adv-x="2048" d="M41 451v237h1964v-237h-1964z" />
<glyph unicode="&#x2018;" horiz-adv-x="595" d="M127 838v317l168 318h151l-71 -306h65v-329h-313z" />
<glyph unicode="&#x2019;" horiz-adv-x="595" d="M127 840l74 305h-68v330h313v-318l-165 -317h-154z" />
<glyph unicode="&#x201a;" horiz-adv-x="546" d="M113 -311l73 307h-67v328h313v-318l-166 -317h-153z" />
<glyph unicode="&#x201c;" horiz-adv-x="858" d="M76 838v317l168 318h151l-71 -306h65v-329h-313zM463 838v317l166 318h153l-73 -306h67v-329h-313z" />
<glyph unicode="&#x201d;" horiz-adv-x="858" d="M76 840l74 305h-68v330h313v-318l-166 -317h-153zM463 840l74 305h-68v330h313v-318l-166 -317h-153z" />
<glyph unicode="&#x201e;" horiz-adv-x="1032" d="M113 -311l73 307h-67v328h313v-318l-166 -317h-153zM594 -311l72 307h-66v328h311v-318l-166 -317h-151z" />
<glyph unicode="&#x2020;" horiz-adv-x="925" d="M35 739v244h295v422h268v-422h295v-244h-295v-1067h-268v1067h-295z" />
<glyph unicode="&#x2021;" horiz-adv-x="925" d="M35 213v244h295v282h-295v244h295v422h268v-422h295v-244h-295v-282h295v-244h-295v-541h-268v541h-295z" />
<glyph unicode="&#x2022;" horiz-adv-x="962" d="M176 575q0 66 24.5 124.5t67.5 101.5t100.5 67.5t123.5 24.5t123 -24.5t99 -67.5t66.5 -101.5t24.5 -124.5t-24.5 -123t-66.5 -100t-99.5 -67.5t-122.5 -24.5q-66 0 -123.5 24.5t-100.5 67.5t-67.5 100t-24.5 123z" />
<glyph unicode="&#x2026;" horiz-adv-x="1912" d="M135 0v324h311v-324h-311zM809 0v324h311v-324h-311zM1462 0v324h312v-324h-312z" />
<glyph unicode="&#x202f;" horiz-adv-x="378" />
<glyph unicode="&#x2030;" horiz-adv-x="2168" d="M98 801v401q0 55 21.5 98t58.5 74t84 46.5t100 15.5q55 0 103.5 -15.5t84.5 -46.5t57.5 -74t21.5 -98v-401q0 -55 -21.5 -98.5t-58.5 -73t-85 -46t-102 -16.5q-53 0 -101 16.5t-84 46t-57.5 72.5t-21.5 99zM303 -35l758 1495h188l-760 -1495h-186zM305 807 q0 -23 15.5 -38t41.5 -15q25 0 40.5 15t15.5 38v389q0 25 -14.5 40t-43.5 15q-27 0 -41 -15t-14 -40v-389zM950 227v402q0 55 21.5 98t58.5 73.5t84 46t100 15.5q55 0 103.5 -15.5t84.5 -46t57.5 -73.5t21.5 -98v-402q0 -55 -21.5 -98t-58.5 -72.5t-85 -46t-102 -16.5 q-53 0 -101 16.5t-84 46t-57.5 72.5t-21.5 98zM1157 233q0 -23 15.5 -38t41.5 -15q25 0 40.5 15.5t15.5 37.5v390q0 25 -14.5 40t-43.5 15q-27 0 -41 -15.5t-14 -39.5v-390zM1540 227v402q0 55 21.5 98t58.5 73.5t84 46t100 15.5q55 0 103.5 -15.5t84.5 -46t57.5 -73.5 t21.5 -98v-402q0 -55 -21.5 -98t-58.5 -72.5t-85 -46t-102 -16.5q-53 0 -101 16.5t-84 46t-57.5 72.5t-21.5 98zM1747 233q0 -23 15.5 -38t41.5 -15q25 0 40.5 15.5t15.5 37.5v390q0 25 -14.5 40t-43.5 15q-27 0 -41 -15.5t-14 -39.5v-390z" />
<glyph unicode="&#x2039;" horiz-adv-x="757" d="M96 481l269 424h276l-264 -424l264 -424h-276z" />
<glyph unicode="&#x203a;" horiz-adv-x="757" d="M94 57l266 424l-266 424h277l268 -424l-268 -424h-277z" />
<glyph unicode="&#x2044;" horiz-adv-x="368" d="M-295 -35l758 1495h188l-760 -1495h-186z" />
<glyph unicode="&#x205f;" horiz-adv-x="472" />
<glyph unicode="&#x20ac;" d="M43 524v150h80v74h-80v149h80v82q0 80 23.5 161t75.5 146.5t134 107.5t201 42q94 0 167 -30t126 -79t87 -113.5t46 -134.5l-266 -84q-4 20 -13.5 48t-28 50.5t-48 39t-70.5 16.5q-43 0 -71.5 -15.5t-46 -39t-25.5 -51t-8 -52.5v-94h307v-149h-307v-74h307v-150h-307v-61 q0 -82 33.5 -135.5t117.5 -53.5q59 0 103.5 40t52.5 110l268 -82q-14 -84 -52 -149.5t-93.5 -110.5t-126 -69.5t-152.5 -24.5q-117 0 -200 39t-135 105.5t-75.5 154.5t-23.5 184v53h-80z" />
<glyph unicode="&#x2122;" horiz-adv-x="1779" d="M84 1243v182h623v-182h-213v-657h-197v657h-213zM793 586v837h227l104 -239q25 -55 46.5 -110.5t43.5 -108.5h5l88 217l106 241h227v-837h-192v493h-6l-82 -217l-86 -205h-117q-23 53 -44 103.5t-44 101.5l-82 217h-6v-493h-188z" />
<glyph unicode="&#x2202;" horiz-adv-x="985" d="M39 465q0 111 32.5 201t89 153.5t132.5 97t162 33.5q51 0 98 -12t96 -35q-4 70 -26.5 131.5t-57.5 105.5t-82 69.5t-102 25.5q-29 0 -71 -5t-111 -32l-2 248q53 16 105 23.5t93 7.5q150 0 252.5 -62.5t166 -167t91 -242t27.5 -286.5q0 -184 -35 -322.5t-97.5 -230.5 t-148.5 -139t-188 -47q-90 0 -168 31.5t-135.5 93t-89 151.5t-31.5 209zM315 469q0 -127 45.5 -184.5t104.5 -57.5q49 0 84 36t57.5 92.5t34.5 125t16 133.5q-53 57 -102 77t-90 20q-33 0 -60.5 -21.5t-47 -55.5t-31 -78t-11.5 -87z" />
<glyph unicode="&#x220f;" horiz-adv-x="1146" d="M125 -160v1585h897v-1585h-293v1307h-307v-1307h-297z" />
<glyph unicode="&#x2211;" horiz-adv-x="921" d="M49 1161v264h807v-274h-463l236 -508l-230 -518h482v-285h-830v273l240 528z" />
<glyph unicode="&#x221a;" horiz-adv-x="1132" d="M39 778q25 8 79 24.5t115.5 36t117 37t79.5 25.5l160 -545q12 51 30.5 150.5t41 222.5t46 258t46 258t41 222.5t30.5 152.5h267l-365 -1778h-238l-243 768l-129 -35z" />
<glyph unicode="&#x221e;" horiz-adv-x="1417" d="M92 557q0 66 25.5 126t70.5 106.5t103.5 73t126.5 26.5q41 0 83 -14.5t79.5 -37t72.5 -50t62 -56.5q57 78 125.5 118t173.5 40q68 0 125 -24.5t98 -68.5t64.5 -105.5t23.5 -133.5q0 -68 -25.5 -128t-68.5 -106.5t-102.5 -74t-127.5 -27.5q-94 0 -163.5 48t-126.5 114 q-59 -68 -129 -115t-174 -47q-66 0 -123.5 24.5t-100.5 69.5t-67.5 106.5t-24.5 135.5zM317 559q0 -51 30 -88t67 -37q45 0 86 36t75 85q-31 45 -70.5 81t-86.5 36q-39 0 -70 -33t-31 -80zM844 559q41 -49 81 -87t79 -38t69.5 37t30.5 86q0 47 -30.5 81t-67.5 34 q-41 0 -81 -33t-81 -80z" />
<glyph unicode="&#x222b;" horiz-adv-x="647" d="M-94 -262l51 184q76 -18 113 -14q20 0 37.5 9t31 30.5t22.5 58.5t15 94q6 51 10 123t7.5 168t4.5 221t1 283q0 27 2 68t5 85t6 86t7 72q27 205 117 290t237 85q35 0 84.5 -9t87.5 -26l-49 -196q-70 14 -104 14q-31 0 -52.5 -11.5t-37 -40t-24.5 -76.5t-15 -124 q-2 -27 -4 -78t-3 -115.5t-2 -138t-2 -145.5t-1 -136.5v-111.5q0 -197 -21.5 -329t-66 -211.5t-114 -113.5t-167.5 -34q-35 0 -85 9t-91 30z" />
<glyph unicode="&#x2248;" horiz-adv-x="1024" d="M43 352q57 121 126 184.5t173 63.5q43 0 85 -17.5t79 -38t69.5 -36.5t61.5 -16q72 0 156 110l153 -92q-59 -131 -127.5 -188.5t-146.5 -57.5q-45 0 -88 16.5t-82 37t-75 37t-67 16.5q-39 0 -78.5 -22.5t-88.5 -88.5zM55 733q57 121 126 184.5t173 63.5q43 0 85 -17.5 t79 -38t70 -37t61 -16.5q72 0 156 111l153 -92q-59 -131 -127.5 -188.5t-146.5 -57.5q-45 0 -88 16.5t-82 37t-75 37t-66 16.5q-39 0 -79 -22.5t-89 -88.5z" />
<glyph unicode="&#x2260;" d="M37 291v227h291l110 191h-401v227h530l144 248h233l-143 -248h162v-227h-293l-111 -191h404v-227h-533l-143 -250h-232l142 250h-160z" />
<glyph unicode="&#x2264;" horiz-adv-x="1024" d="M57 670v202l914 342v-266l-522 -176h2l520 -164v-268zM59 0v238h912v-238h-912z" />
<glyph unicode="&#x2265;" horiz-adv-x="1024" d="M59 0v238h912v-238h-912zM59 340v268l521 164h2l-523 176v266l914 -342v-202z" />
<glyph unicode="&#x25ca;" horiz-adv-x="690" d="M35 610l215 611h186l217 -611l-215 -608h-186zM176 606h4l164 -471h6l162 471l-168 475h-6z" />
<glyph unicode="&#x25fc;" horiz-adv-x="1013" d="M0 0v1014h1014v-1014h-1014z" />
</font>
</defs>
</svg>
